<?xml version="1.0" encoding="UTF-8"?>
<svg width="101px" height="101px" viewBox="0 0 101 101" version="1.1" xmlns="http://www.w3.org/2000/svg" xmlns:xlink="http://www.w3.org/1999/xlink">
    <title>EDCCEB20-4E0B-40C4-8F76-E8000BA2D0B8</title>
    <g id="Design" stroke="none" stroke-width="1" fill="none" fill-rule="evenodd">
        <g id="001-Homepage" transform="translate(-231.000000, -4921.000000)" fill-rule="nonzero">
            <g id="About-Cure.-" transform="translate(202.000000, 4899.000000)">
                <g transform="translate(29.000000, 22.000000)">
                    <rect id="Rectangle" fill="#F4F7FA" x="0.0982456056" y="0.0392982422" width="100.662447" height="100.662447"></rect>
                    <path d="M97.4203425,38.4926283 L97.4203425,98.4420968 L3.1635085,98.4420968 L3.1635085,38.4926283 C3.1635085,32.1852604 8.29192911,27.0568398 14.599297,27.0568398 L85.984554,27.0568398 C92.311571,27.0568398 97.4203425,32.1852604 97.4203425,38.4926283 Z" id="Path" fill="#00ACD4"></path>
                    <path d="M69.4989414,35.9382425 L62.9164858,35.9382425 L62.9164858,19.3740334 C62.9164858,17.9396476 61.7571877,16.7803494 60.3228018,16.7803494 L40.4771895,16.7803494 C39.0428037,16.7803494 37.8835055,17.9396476 37.8835055,19.3740334 L37.8835055,35.4666636 L31.3010499,35.4666636 L31.3010499,16.3677179 C31.3010499,12.9684199 34.071576,10.1978939 37.470874,10.1978939 L63.3291174,10.1978939 C66.7284153,10.1978939 69.4989414,12.9684199 69.4989414,16.3677179 L69.4989414,35.9382425 L69.4989414,35.9382425 Z" id="Path" fill="#6F82A0"></path>
                    <path d="M97.4203425,38.4926283 L97.4203425,47.9242064 L3.1635085,47.9242064 L3.1635085,38.4926283 C3.1635085,32.1852604 8.29192911,27.0568398 14.599297,27.0568398 L85.984554,27.0568398 C92.311571,27.0568398 97.4203425,32.1852604 97.4203425,38.4926283 Z" id="Path" fill="#161B52"></path>
                    <rect id="Rectangle" fill="#EA6957" x="33.5017515" y="56.7663109" width="32.0084183" height="32.0084183"></rect>
                    <polygon id="Path" fill="#FFFFFF" points="58.3578897 69.2435028 53.0329779 69.2435028 53.0329779 63.918591 45.9789434 63.918591 45.9789434 69.2435028 40.6540316 69.2435028 40.6540316 76.2975373 45.9789434 76.2975373 45.9789434 81.6224491 53.0329779 81.6224491 53.0329779 76.2975373 58.3578897 76.2975373"></polygon>
                </g>
            </g>
        </g>
    </g>
</svg>