<?xml version="1.0" encoding="UTF-8"?>
<svg width="101px" height="101px" viewBox="0 0 101 101" version="1.1" xmlns="http://www.w3.org/2000/svg" xmlns:xlink="http://www.w3.org/1999/xlink">
    <title>2C67D8CD-319B-4C90-B751-C9F0136AD402</title>
    <g id="Design" stroke="none" stroke-width="1" fill="none" fill-rule="evenodd">
        <g id="001-Homepage" transform="translate(-1113.000000, -4929.000000)" fill-rule="nonzero">
            <g id="Account-&amp;-Review-" transform="translate(1078.000000, 4899.000000)">
                <g transform="translate(35.000000, 30.000000)">
                    <rect id="Rectangle" fill="#F4F7FA" x="0.156887146" y="0.0392217865" width="100.466606" height="100.466606"></rect>
                    <path d="M7.49136122,8.49151678 L7.49136122,88.2294087 C7.49136122,91.0925992 9.80544663,93.4066846 12.668637,93.4066846 L71.6778148,93.4066846 C74.5410053,93.4066846 76.8550907,91.0925992 76.8550907,88.2294087 L76.8550907,22.3760292 L53.0474662,3.43190632 L52.91019,3.31424096 L12.668637,3.31424096 C9.80544663,3.31424096 7.49136122,5.62832636 7.49136122,8.49151678 Z" id="Path" fill="#00ACD4"></path>
                    <circle id="Oval" fill="#161B52" cx="26.4747059" cy="20.4345508" r="4.41245098"></circle>
                    <path d="M17.3556405,34.6720593 L17.3556405,34.2013978 C17.3556405,29.1417874 21.4543172,25.0431107 26.5139277,25.0431107 L26.5139277,25.0431107 C31.5735381,25.0431107 35.6722148,29.1417874 35.6722148,34.2013978 L35.6722148,34.6720593 L17.3556405,34.6720593 L17.3556405,34.6720593 Z" id="Path" fill="#161B52"></path>
                    <path d="M53.0474662,3.43190632 C53.0474662,9.19750894 53.086688,16.9634227 53.1062989,20.5129943 C53.1062989,21.5523717 53.9691782,22.3956401 55.0085556,22.3956401 L76.8550907,22.3956401 L53.0474662,3.43190632 Z" id="Path" fill="#161B52"></path>
                    <circle id="Oval" fill="#FFFFFF" cx="59.7543917" cy="53.3220188" r="16.6888702"></circle>
                    <rect id="Rectangle" fill="#EA6957" transform="translate(71.875053, 69.581581) rotate(-37.417672) translate(-71.875053, -69.581581) " x="69.5806576" y="65.8654442" width="4.58879162" height="7.4322736"></rect>
                    <path d="M70.6580484,67.9909669 C78.5416275,61.9508118 80.0516663,50.6353264 74.0115111,42.7517473 C67.971356,34.8681682 56.6558706,33.3581294 48.7722915,39.3982845 C40.8887124,45.4384397 39.3786737,56.7539251 45.4188288,64.6375042 C51.4589839,72.5210833 62.7744693,74.031122 70.6580484,67.9909669 Z M50.8510462,42.1045878 C57.2245865,37.2214754 66.4024846,38.4373508 71.285597,44.830502 C76.1687094,51.2040423 74.952834,60.3819403 68.5596828,65.2650527 C62.1665316,70.1481652 53.0082445,68.9322898 48.125132,62.5391386 C43.2420196,56.1459874 44.4775059,46.9877002 50.8510462,42.1045878 Z" id="Shape" fill="#161B52"></path>
                    <path d="M76.5413164,69.4813948 L94.6029491,93.0929103 C95.2501085,93.9361787 95.1324432,95.1324432 94.3480074,95.7403809 L91.2298754,98.1132989 C90.4258288,98.7212366 89.2687861,98.5251277 88.6216266,97.6818593 L70.5599939,74.0703438 C69.9128344,73.2270754 70.0304998,72.0308109 70.8149355,71.4228732 L73.9330676,69.0499551 C74.7175033,68.4420175 75.8941569,68.6381264 76.5413164,69.4813948 Z" id="Path" fill="#161B52"></path>
                    <rect id="Rectangle" fill="#161B52" x="14.6101155" y="46.2620972" width="23.8076244" height="2.09836558"></rect>
                    <rect id="Rectangle" fill="#161B52" x="14.6101155" y="51.8904235" width="23.8076244" height="2.09836558"></rect>
                    <rect id="Rectangle" fill="#161B52" x="14.6101155" y="57.5383608" width="23.8076244" height="2.09836558"></rect>
                    <rect id="Rectangle" fill="#161B52" x="14.6101155" y="63.205909" width="23.8076244" height="2.09836558"></rect>
                    <rect id="Rectangle" fill="#161B52" x="14.6101155" y="68.9715116" width="23.8076244" height="2.09836558"></rect>
                    <rect id="Rectangle" fill="#161B52" x="14.6101155" y="74.7371142" width="23.8076244" height="2.09836558"></rect>
                    <path d="M69.3245077,53.282797 C66.1083212,50.517661 62.7352475,49.2037312 59.2837303,49.3802292 C54.930112,49.595949 51.7139255,52.0865325 50.4196066,53.282797 C50.0862214,53.5965713 50.0862214,54.1456763 50.4392174,54.4594506 L50.4588283,54.4790615 C50.7529917,54.753614 51.2236532,54.753614 51.5178166,54.4790615 C52.4003068,53.6750148 54.3417852,52.1257543 56.950034,51.4001512 C56.2832636,52.0669216 55.8714349,52.9886336 55.8714349,54.0084 C55.8714349,56.0479329 57.5383608,57.7148588 59.5778937,57.7148588 C61.6174266,57.7148588 63.2843525,56.0479329 63.2843525,54.0084 C63.2843525,52.8905791 62.7940802,51.8904235 62.0096445,51.2236532 C64.1472318,51.6747037 66.2455974,52.7729137 68.3047412,54.5378941 C68.6381264,54.8124466 69.1087878,54.7928357 69.4029512,54.4790615 L69.4029512,54.4790615 C69.6971146,54.0868436 69.6578928,53.5769604 69.3245077,53.282797 Z" id="Path" fill="#161B52"></path>
                </g>
            </g>
        </g>
    </g>
</svg>