<?xml version="1.0" encoding="UTF-8"?>
<svg width="101px" height="101px" viewBox="0 0 101 101" version="1.1" xmlns="http://www.w3.org/2000/svg" xmlns:xlink="http://www.w3.org/1999/xlink">
    <title>358725A0-6B16-4187-A79A-E505B075735F</title>
    <g id="Design" stroke="none" stroke-width="1" fill="none" fill-rule="evenodd">
        <g id="001-Homepage" transform="translate(-817.000000, -4926.000000)" fill-rule="nonzero">
            <g id="Appoinment-" transform="translate(787.000000, 4899.000000)">
                <g transform="translate(30.000000, 27.000000)">
                    <rect id="Rectangle" fill="#F4F7FA" x="0" y="0.0392982422" width="100.662447" height="100.662447"></rect>
                    <path d="M97.6561319,24.3059628 L97.6561319,88.5389397 C97.6561319,92.0757815 94.7873603,94.9642024 91.2308693,94.9642024 L9.29403429,94.9642024 C5.75719249,94.9642024 2.86877168,92.0954307 2.86877168,88.5389397 L2.86877168,24.3059628 C2.86877168,20.769121 5.73754337,17.8807002 9.29403429,17.8807002 L91.2308693,17.8807002 C94.7873603,17.8807002 97.6561319,20.769121 97.6561319,24.3059628 Z" id="Path" fill="#00ACD4"></path>
                    <path d="M97.6561319,24.3059628 L97.6561319,35.211225 L2.8884208,35.211225 L2.8884208,24.3059628 C2.8884208,20.769121 5.75719249,17.8807002 9.31368341,17.8807002 L91.2505185,17.8807002 C94.7873603,17.8807002 97.6561319,20.769121 97.6561319,24.3059628 Z" id="Path" fill="#EA6957"></path>
                    <path d="M18.9614019,9.64771847 L18.9614019,9.64771847 C20.8673666,9.64771847 22.3999981,11.1803499 22.3999981,13.0863147 L22.3999981,23.362805 C22.3999981,25.2687698 20.8673666,26.8014012 18.9614019,26.8014012 L18.9614019,26.8014012 C17.0554371,26.8014012 15.5228057,25.2687698 15.5228057,23.362805 L15.5228057,13.0863147 C15.5228057,11.1803499 17.0554371,9.64771847 18.9614019,9.64771847 Z" id="Path" fill="#161B52"></path>
                    <path d="M34.228769,9.64771847 L34.228769,9.64771847 C36.1347337,9.64771847 37.6673652,11.1803499 37.6673652,13.0863147 L37.6673652,23.362805 C37.6673652,25.2687698 36.1347337,26.8014012 34.228769,26.8014012 L34.228769,26.8014012 C32.3228042,26.8014012 30.7901728,25.2687698 30.7901728,23.362805 L30.7901728,13.0863147 C30.7901728,11.1803499 32.3228042,9.64771847 34.228769,9.64771847 Z" id="Path" fill="#161B52"></path>
                    <path d="M66.7873627,9.64771847 L66.7873627,9.64771847 C68.6933274,9.64771847 70.2259589,11.1803499 70.2259589,13.0863147 L70.2259589,23.362805 C70.2259589,25.2687698 68.6933274,26.8014012 66.7873627,26.8014012 L66.7873627,26.8014012 C64.8813979,26.8014012 63.3487665,25.2687698 63.3487665,23.362805 L63.3487665,13.0863147 C63.3487665,11.1803499 64.901047,9.64771847 66.7873627,9.64771847 Z" id="Path" fill="#161B52"></path>
                    <path d="M82.0547298,9.64771847 L82.0547298,9.64771847 C83.9606945,9.64771847 85.493326,11.1803499 85.493326,13.0863147 L85.493326,23.362805 C85.493326,25.2687698 83.9606945,26.8014012 82.0547298,26.8014012 L82.0547298,26.8014012 C80.148765,26.8014012 78.6161336,25.2687698 78.6161336,23.362805 L78.6161336,13.0863147 C78.6161336,11.1803499 80.1684142,9.64771847 82.0547298,9.64771847 Z" id="Path" fill="#161B52"></path>
                    <circle id="Oval" fill="#161B52" cx="50.5571886" cy="47.8456099" r="5.18736797"></circle>
                    <circle id="Oval" fill="#161B52" cx="50.5571886" cy="63.6042051" r="5.18736797"></circle>
                    <circle id="Oval" fill="#161B52" cx="34.5038567" cy="63.6042051" r="5.18736797"></circle>
                    <circle id="Oval" fill="#161B52" cx="17.9789458" cy="64.075784" r="4.87298204"></circle>
                    <circle id="Oval" fill="#161B52" cx="17.9789458" cy="78.6161336" r="4.87298204"></circle>
                    <circle id="Oval" fill="#161B52" cx="33.2266638" cy="78.6161336" r="4.87298204"></circle>
                    <circle id="Oval" fill="#161B52" cx="48.2975397" cy="78.6161336" r="4.87298204"></circle>
                    <circle id="Oval" fill="#161B52" cx="66.4533276" cy="47.8456099" r="5.18736797"></circle>
                    <circle id="Oval" fill="#161B52" cx="82.408414" cy="47.8456099" r="5.18736797"></circle>
                    <circle id="Oval" fill="#FFFFFF" cx="74.2540287" cy="71.1494676" r="15.5424548"></circle>
                    <polygon id="Path" fill="#00ACD4" points="70.8154325 79.7754317 62.7396437 71.8175377 65.4512224 69.0666607 70.894029 74.4308708 83.1550806 63.0736788 85.7880628 65.9228013"></polygon>
                </g>
            </g>
        </g>
    </g>
</svg>