<?xml version="1.0" encoding="UTF-8"?>
<svg width="180px" height="180px" viewBox="0 0 180 180" version="1.1" xmlns="http://www.w3.org/2000/svg" xmlns:xlink="http://www.w3.org/1999/xlink">
    <title>64EC9E14-0E65-4247-AA5A-A8C2BF4BB18D</title>
    <defs>
        <circle id="path-1" cx="90" cy="90" r="90"></circle>
    </defs>
    <g id="Design" stroke="none" stroke-width="1" fill="none" fill-rule="evenodd">
        <g id="001-Homepage" transform="translate(-230.000000, -3222.000000)">
            <g id="Attract" transform="translate(230.000000, 3222.000000)">
                <mask id="mask-2" fill="white">
                    <use xlink:href="#path-1"></use>
                </mask>
                <use id="Mask" fill="#D8D8D8" xlink:href="#path-1"></use>
                <g mask="url(#mask-2)" fill-rule="nonzero">
                    <rect id="Rectangle" fill="#C3DFF4" x="0.0335999988" y="0.401593639" width="180" height="178"></rect>
                    <circle id="Oval" fill="#F0947F" cx="139.979195" cy="145.062395" r="12.1295996"></circle>
                    <polygon id="Path" fill="#EF9481" points="73.4847974 129.404795 107.958396 129.404795 108.999996 94.5279968 103.691196 86.4303971 77.3151973 86.4303971 71.8719975 92.9823968"></polygon>
                    <path d="M67.2015977,104.742396 L31.686399,123.121596 C27.4863991,125.271996 24.4959992,129.203195 23.4879993,133.806395 L15.7599996,179.468794 L76.3743973,179.468794 L67.2015977,104.742396 Z" id="Path" fill="#FFFFFF"></path>
                    <path d="M112.863996,104.742396 L148.379195,123.121596 C152.579195,125.271996 155.569594,129.203195 156.577594,133.806395 L164.305594,179.468794 L103.691196,179.468794 L112.863996,104.742396 Z" id="Path" fill="#FFFFFF"></path>
                    <path d="M73.4847974,121.105596 C73.4847974,121.105596 91.5951968,130.614395 106.748796,121.105596 L103.791996,179.468794 L79.5663972,179.468794 L73.4847974,121.105596 Z" id="Path" fill="#161B52"></path>
                    <path d="M73.7199974,89.7567969 C73.7199974,89.7567969 72.3087975,115.158396 81.4815971,179.468794 L69.4863976,179.468794 L56.0799981,141.567995 L68.7807976,133.638395 L52.9215982,125.876796 C52.9215982,125.876796 56.953598,101.214397 73.7199974,89.7567969 Z" id="Path" fill="#00ACD4"></path>
                    <path d="M106.345596,89.7567969 C106.345596,89.7567969 107.756796,115.158396 98.5839965,179.468794 L110.579196,179.468794 L123.985596,141.567995 L111.284796,133.638395 L127.143995,125.876796 C127.110395,125.876796 123.078396,101.214397 106.345596,89.7567969 Z" id="Path" fill="#00ACD4"></path>
                    <path d="M122.271996,48.0591985 L116.492796,22.7583994 L90.7887968,22.7583994 L90.2511968,22.7583994 L64.5471978,22.7583994 L58.767998,48.0591985 C49.5615983,54.2751983 62.1951979,64.1199979 62.1951979,64.1199979 C68.2095976,98.9967966 87.9999969,98.8287966 90.5199968,98.6607966 C93.0399967,98.8287966 112.830396,99.0303966 118.844796,64.1199979 C118.844796,64.1535979 131.478395,54.2751983 122.271996,48.0591985 Z" id="Path" fill="#EF9481"></path>
                    <path d="M120.121596,22.7583994 C114.711996,9.48639991 94.7535967,8.14239996 90.7887968,8.00799996 L90.7887968,8.00799996 C90.7887968,8.00799996 90.6543968,8.00799996 90.4527968,8.00799996 C90.2175968,8.00799996 90.1167968,8.00799996 90.1167968,8.00799996 L90.1167968,8.00799996 C86.151997,8.14239996 66.1935977,9.48639991 60.7839979,22.7583994 C57.524798,30.7887991 56.4159981,44.5983986 60.8847979,57.3999981 C61.0527979,57.8703981 58.532798,31.7295991 71.1327975,28.1343992 C71.1327975,28.1343992 81.7167971,33.039999 90.1167968,33.174399 L90.1167968,33.174399 C90.2175968,33.174399 90.3519968,33.174399 90.4527968,33.174399 C90.5535968,33.174399 90.6879968,33.174399 90.7887968,33.174399 L90.7887968,33.174399 C99.1887965,33.039999 109.772796,28.1343992 109.772796,28.1343992 C122.372796,31.7631991 119.852796,57.8703981 120.020796,57.3999981 C124.455996,44.6319986 123.380796,30.7887991 120.121596,22.7583994 Z" id="Path" fill="#161B52"></path>
                    <path d="M47.1759984,121.743996 C56.3487981,126.951996 60.7839979,134.041595 62.8671978,139.081595 C65.2191977,144.726395 65.8239977,150.908795 64.4127978,154.806395 C62.3631978,160.484794 56.5503981,161.862394 53.7951982,161.828794 L53.8287982,159.308794 C54.0975982,159.308794 60.1119979,159.308794 62.0607979,153.932795 C64.3119978,147.716795 60.8511979,132.361595 45.9327985,123.894396 L47.1759984,121.743996 Z" id="Path" fill="#161B52"></path>
                    <path d="M45.8991985,121.743996 C36.8607988,127.153596 32.5935989,134.343995 30.611199,139.417595 C28.3935991,145.129595 27.9231991,151.311995 29.4351991,155.175995 C31.619199,160.787194 37.4319988,162.063994 40.2207987,161.963194 L40.1199987,159.443194 C39.8511987,159.443194 33.8367989,159.611194 31.753599,154.268795 C29.3679991,148.086395 32.4927989,132.663995 47.2095984,123.860796 L45.8991985,121.743996 Z" id="Path" fill="#161B52"></path>
                    <path d="M54.3999981,160.619194 L54.3999981,160.619194 C54.3999981,159.476794 53.4591982,158.569594 52.3167982,158.569594 L50.9391983,158.569594 C49.7967983,158.569594 48.8895983,159.510394 48.8895983,160.652794 L48.8895983,160.652794 C48.8895983,161.795194 49.8303983,162.702394 50.9727983,162.702394 L52.3503982,162.702394 C53.4927982,162.702394 54.3999981,161.761594 54.3999981,160.619194 Z" id="Path" fill="#00ACD4"></path>
                    <path d="M45.0927985,160.719994 L45.0927985,160.719994 C45.0927985,159.577594 44.1519985,158.670394 43.0095986,158.670394 L41.6319986,158.670394 C40.4895987,158.670394 39.5823987,159.611194 39.5823987,160.753594 L39.5823987,160.753594 C39.5823987,161.895994 40.5231987,162.803194 41.6655986,162.803194 L43.0431986,162.803194 C44.1855985,162.803194 45.0927985,161.862394 45.0927985,160.719994 Z" id="Path" fill="#00ACD4"></path>
                    <g id="Group" transform="translate(45.327998, 120.567996)" fill="#161B52">
                        <path d="M13.0367995,12.7343995 C13.0367995,12.7343995 6.35039977,4.36799984 1.04159996,2.28479992" id="Path"></path>
                        <path d="M1.88159993,0.201599993 C6.71999975,2.11679992 12.1295996,8.1647997 14.0783995,10.5167996 C14.4815995,10.9871996 14.4143995,11.6591996 13.9103995,12.0623996 L12.0959996,13.5071995 C11.6255996,13.8767995 10.9871996,13.8095995 10.6175996,13.3727995 C8.39999969,10.7519996 3.69599986,5.77919979 0.235199991,4.40159984 L1.88159993,0.201599993 Z" id="Path"></path>
                    </g>
                    <g id="Group" transform="translate(33.567999, 120.567996)" fill="#161B52">
                        <path d="M1.47839995,13.0031995 C1.47839995,13.0031995 7.96319971,4.46879984 13.2047995,2.25119992" id="Path"></path>
                        <path d="M12.3311995,0.201599993 C7.55999972,2.21759992 2.28479992,8.39999969 0.369599986,10.7855996 C5.55111512e-17,11.2559996 0.0671999975,11.9615996 0.571199979,12.2975995 L2.41919991,13.7087995 C2.88959989,14.0447995 3.52799987,13.9775995 3.89759986,13.5407995 C6.04799978,10.8863996 10.6511996,5.77919979 14.0783995,4.33439984 L12.3311995,0.201599993 Z" id="Path"></path>
                    </g>
                    <path d="M44.8911985,124.230396 C44.8911985,124.028796 44.4879985,121.307196 46.7727984,115.897596 C48.8559983,110.891196 55.1391981,101.247997 65.4543977,97.5183967 L63.0351978,100.777597 C48.3519984,111.495996 47.8143984,123.961596 47.8143984,124.129596 L44.8911985,124.230396 Z" id="Path" fill="#161B52"></path>
                    <path d="M137.123195,136.897595 C137.022395,116.905596 119.113596,104.070396 118.911996,103.935996 L116.660796,100.206397 C116.895996,100.374397 123.783996,104.003196 129.126395,110.353596 C136.249595,118.787196 140.046395,127.959996 140.079995,136.897595 L137.123195,136.897595 Z" id="Path" fill="#161B52"></path>
                    <circle id="Oval" fill="#F0947F" cx="138.601595" cy="141.769595" r="6.98879974"></circle>
                    <path d="M145.590395,141.769595 C145.590395,145.633595 142.465595,148.758395 138.601595,148.758395 L138.601595,134.780795 C142.431995,134.814395 145.590395,137.939195 145.590395,141.769595 Z" id="Path" fill="#EA6957"></path>
                </g>
            </g>
        </g>
    </g>
</svg>