<?xml version="1.0" encoding="UTF-8"?>
<svg width="180px" height="180px" viewBox="0 0 180 180" version="1.1" xmlns="http://www.w3.org/2000/svg" xmlns:xlink="http://www.w3.org/1999/xlink">
    <title>0B49A19C-C67B-44AD-9231-DF27B16BE2CB</title>
    <defs>
        <circle id="path-1" cx="90" cy="90" r="90"></circle>
    </defs>
    <g id="Design" stroke="none" stroke-width="1" fill="none" fill-rule="evenodd">
        <g id="001-Homepage" transform="translate(-630.000000, -3222.000000)">
            <g id="Build" transform="translate(630.000000, 3222.000000)">
                <mask id="mask-2" fill="white">
                    <use xlink:href="#path-1"></use>
                </mask>
                <use id="Mask" fill="#C3DFF4" xlink:href="#path-1"></use>
                <g mask="url(#mask-2)" fill-rule="nonzero">
                    <g transform="translate(8.000000, 0.000000)">
                        <rect id="Rectangle" fill="#C3DFF4" x="0.793494728" y="0.253918313" width="162.60294" height="162.60294"></rect>
                        <rect id="Rectangle" fill="#161B52" x="104.900003" y="69.0975209" width="36.9451145" height="84.7769767"></rect>
                        <rect id="Rectangle" fill="#161B52" x="58.1790334" y="97.5363719" width="36.9451145" height="56.3063859"></rect>
                        <rect id="Rectangle" fill="#161B52" x="20.3452048" y="115.723271" width="27.8675348" height="38.1194867"></rect>
                        <rect id="Rectangle" fill="#00ACD4" x="0.190438735" y="152.573166" width="162.5712" height="8.95062053"></rect>
                        <circle id="Oval" fill="#FFFFFF" cx="123.309081" cy="35.6120434" r="19.710409"></circle>
                        <polygon id="Path" fill="#EA6957" points="123.309081 21.8052351 127.371774 29.9941007 136.385874 31.2954321 129.847477 37.6751297 131.402727 46.65749 123.309081 42.4043583 115.247174 46.65749 116.770684 37.6751297 110.232288 31.2954321 119.278127 29.9941007"></polygon>
                        <path d="M70.6210308,43.9596079 C69.4466586,43.7691692 68.3675058,44.5944037 68.177067,45.7370361 L68.177067,45.7370361 C67.9866283,46.9114083 68.8118628,47.9905611 69.9544952,48.1809999 L86.840063,50.7519228 L21.3608781,89.7918634 C20.7260823,90.1727409 20.313465,90.8710162 20.313465,91.6327712 L20.313465,91.6327712 C20.313465,93.2832402 22.122633,94.3306532 23.5509235,93.4736789 L89.1253278,54.3702588 L85.2213338,70.7162501 C84.9356757,71.8588826 85.6022112,73.0649945 86.7131039,73.3506526 C87.8874761,73.6680505 89.0618483,72.9380354 89.3475064,71.795403 L95.0924082,47.6731632 L70.6210308,43.9596079 Z M89.7283838,51.1962798 L89.8870828,51.2280196 L89.855343,51.4184584 L89.7283838,51.1962798 Z" id="Shape" fill="#07334F"></path>
                    </g>
                </g>
            </g>
        </g>
    </g>
</svg>