<?xml version="1.0" encoding="UTF-8"?>
<svg width="162px" height="121px" viewBox="0 0 162 121" version="1.1" xmlns="http://www.w3.org/2000/svg" xmlns:xlink="http://www.w3.org/1999/xlink">
    <title>9990D5DB-48B4-428D-9ADB-620D51EA4586</title>
    <g id="Design" stroke="none" stroke-width="1" fill="none" fill-rule="evenodd">
        <g id="001-Homepage" transform="translate(-1029.000000, -1742.000000)" fill-rule="nonzero">
            <g id="Cardiologist" transform="translate(1029.000000, 1742.000000)">
                <path d="M3.69854568,29.366166 C-0.745443316,39.9457269 -1.20417766,52.1308581 2.43702623,62.9971279 C4.09993824,67.985864 6.68031895,72.7739037 10.55089,76.3577658 C17.0591836,82.3499832 26.4058959,84.1849206 35.265203,84.5576423 C44.1245101,84.9016931 53.0985008,84.0415662 61.7857825,85.76182 C69.69895,87.3100484 77.0960414,90.9799232 83.6903477,95.6246085 C92.4063003,101.76018 100.090101,109.816702 110.153585,113.371894 C117.464664,115.923603 125.435173,115.866262 133.090303,114.891451 C141.978281,113.744615 151.439677,110.934867 156.715122,103.68113 C160.012275,99.1511288 161.245123,93.4742912 161.675187,87.8834663 C162.879365,71.8277641 157.890629,55.7720619 149.94879,41.7519934 C143.956573,31.1437616 135.125936,20.764897 123.08416,18.7292633 C111.185738,16.7223005 99.7460499,23.3452777 89.1951599,29.2228115 C78.6442698,35.1003454 66.1437588,40.5478158 54.8760964,36.2185103 C48.4538155,33.7528132 43.608434,28.4773682 39.1357741,23.259265 C36.6414061,20.3635044 34.1470381,17.3530603 30.8785558,15.3747684 C22.2486159,10.1279943 9.31804145,14.6293251 5.82019204,24.1193919 L3.69854568,29.366166 Z" id="Path" fill="#D9E6F4"></path>
                <path d="M138.652457,65.3481415 L137.677646,66.2656102 L134.781886,69.0180162 L80.9379416,120.453605 L27.6100736,69.5914342 L24.714313,66.8390281 L23.1947555,65.3768124 C15.4536134,57.9510501 11.5543714,48.0309198 11.5543714,38.0821186 C11.5543714,28.6780645 15.0235499,19.3026813 22.0479196,11.9629317 C36.4693807,-3.11796002 60.3809086,-3.63403617 75.4618003,10.7874249 L80.9666125,16.034199 L86.4427538,10.7874249 C101.523645,-3.63403617 125.435173,-3.11796002 139.856634,11.9629317 C154.249425,27.0151525 153.733348,50.9266804 138.652457,65.3481415 Z" id="Path" fill="#EA6957"></path>
                <polygon id="Path" fill="#FFFDFD" points="137.706317 66.2656102 134.810557 69.0466871 124.489034 69.0466871 121.535931 58.2951009 114.425549 80.5437168 104.018013 39.0569291 97.8824416 69.1900416 86.3567411 69.1900416 79.6764221 79.3108682 74.7736988 59.4706076 67.3766074 92.1841008 54.5607166 38.3974985 46.0741311 69.5914342 27.6100736 69.5914342 24.714313 66.8103572 43.9811556 66.8103572 54.7614128 27.2158488 67.3192656 79.9416279 74.6590152 47.4575019 80.8519289 72.5158657 84.8658544 66.4376355 95.6461116 66.4376355 103.731305 26.5564181 114.740929 70.4515611 121.707957 48.6330086 126.61068 66.2656102"></polygon>
            </g>
        </g>
    </g>
</svg>