<?xml version="1.0" encoding="UTF-8"?>
<svg width="180px" height="180px" viewBox="0 0 180 180" version="1.1" xmlns="http://www.w3.org/2000/svg" xmlns:xlink="http://www.w3.org/1999/xlink">
    <title>24B494AF-911F-487F-9BF0-384AEF1DE44C</title>
    <defs>
        <circle id="path-1" cx="90" cy="90" r="90"></circle>
    </defs>
    <g id="Design" stroke="none" stroke-width="1" fill="none" fill-rule="evenodd">
        <g id="001-Homepage" transform="translate(-1030.000000, -3222.000000)">
            <g id="Deliver" transform="translate(1030.000000, 3222.000000)">
                <mask id="mask-2" fill="white">
                    <use xlink:href="#path-1"></use>
                </mask>
                <use id="Mask" fill="#C3DFF4" xlink:href="#path-1"></use>
                <g mask="url(#mask-2)" fill-rule="nonzero">
                    <g transform="translate(0.000000, -15.000000)">
                        <rect id="Rectangle" fill="#C3DFF4" x="0" y="0.280975588" width="179.929742" height="179.929742"></rect>
                        <path d="M102.415602,139.539502 C102.415602,139.539502 127.07121,129.564868 134.411697,124.647795 C136.62438,123.172673 143.508282,117.412674 145.088769,125.596088 C145.088769,125.596088 160.015597,108.386333 163.84389,122.505356 L164.967792,126.544381 L130.759014,152.113159 L102.415602,139.539502 Z" id="Path" fill="#161B52"></path>
                        <path d="M44.9560941,128.51121 C44.9560941,128.51121 73.0887749,123.664381 96.1638951,133.287795 C96.1638951,133.287795 104.839016,134.271209 127.07121,132.585356 C128.265356,132.47999 129.459502,132.6556 130.583405,133.077063 C133.498526,134.200965 138.169746,137.080965 136.343404,143.929745 L165.986329,121.065357 C165.986329,121.065357 171.184377,118.325845 174.66145,123.523893 C174.66145,123.523893 178.138523,128.581454 173.361938,132.47999 L138.731697,160.858524 C136.238038,162.895597 133.287795,164.335597 130.161941,165.002914 L101.080968,171.324865 C96.3746268,172.343401 91.422432,171.711206 87.1375543,169.498524 L70.279019,159.769744 L44.9209722,166.056573 L44.9209722,128.51121 L44.9560941,128.51121 Z" id="Path" fill="#EF9481"></path>
                        <polygon id="Path" fill="#161B52" points="50.5404839 126.158039 50.5404839 172.343401 0.0702438971 174.450718 0.0702438971 126.158039"></polygon>
                        <path d="M97.6741389,150.357062 C97.6741389,150.357062 130.337551,156.889744 150.216574,131.777551 L138.169746,137.397063 C138.169746,137.361941 131.742429,149.97072 97.6741389,150.357062 Z" id="Path" fill="#161B52"></path>
                        <polygon id="Path" fill="#161B52" points="78.3219452 91.3170662 131.075112 91.3170662 134.587307 104.628285 75.2663357 104.628285"></polygon>
                        <path d="M139.012672,47.4848744 C135.570721,47.4848744 132.796087,50.2595083 132.796087,53.7014593 C132.796087,55.4224348 133.498526,56.9678005 134.622429,58.0917029 L121.838039,70.1034093 L108.87804,49.5921913 C110.950235,48.2575573 112.319991,45.9395087 112.319991,43.3053625 C112.319991,39.1960946 108.983406,35.8595094 104.874138,35.8595094 C100.76487,35.8595094 97.4282852,39.1960946 97.4282852,43.3053625 C97.4282852,45.9043867 98.7629193,48.1873134 100.76487,49.5219474 L87.7346274,70.1034093 L75.3014576,57.8809712 C76.3199942,56.7921908 76.9170673,55.3170689 76.9170673,53.7014593 C76.9170673,50.2595083 74.1424333,47.4848744 70.7004824,47.4848744 C67.2585314,47.4848744 64.4838975,50.2595083 64.4838975,53.7014593 C64.4838975,57.1434103 67.2585314,59.9180442 70.7004824,59.9180442 C71.1570677,59.9180442 71.5785311,59.8829222 71.9999945,59.7775564 L77.6897501,87.8751152 L132.058526,87.8751152 L137.783404,59.8126783 C138.169746,59.8829222 138.556087,59.9180442 138.97755,59.9180442 C142.419501,59.9180442 145.194135,57.1434103 145.194135,53.7014593 C145.194135,50.2595083 142.419501,47.4848744 139.012672,47.4848744 Z" id="Path" fill="#EA6957"></path>
                        <rect id="Rectangle" fill="#00ACD4" x="103.715114" y="10.3609748" width="2.4585364" height="13.1707307"></rect>
                        <rect id="Rectangle" fill="#00ACD4" transform="translate(133.189371, 23.438362) rotate(-59.675927) translate(-133.189371, -23.438362) " x="126.603879" y="22.2090702" width="13.1709826" height="2.45858342"></rect>
                        <rect id="Rectangle" fill="#00ACD4" transform="translate(153.429075, 42.397701) rotate(-34.842281) translate(-153.429075, -42.397701) " x="146.843933" y="41.1684742" width="13.1702841" height="2.45845303"></rect>
                        <rect id="Rectangle" fill="#00ACD4" transform="translate(55.658400, 42.405782) rotate(-55.157719) translate(-55.658400, -42.405782) " x="54.4291733" y="35.8206403" width="2.45845303" height="13.1702841"></rect>
                        <rect id="Rectangle" fill="#00ACD4" transform="translate(76.322289, 24.829472) rotate(-30.324073) translate(-76.322289, -24.829472) " x="75.0929977" y="18.2439808" width="2.45858342" height="13.1709826"></rect>
                    </g>
                </g>
            </g>
        </g>
    </g>
</svg>