<?xml version="1.0" encoding="UTF-8"?>
<svg width="162px" height="119px" viewBox="0 0 162 119" version="1.1" xmlns="http://www.w3.org/2000/svg" xmlns:xlink="http://www.w3.org/1999/xlink">
    <title>6AD983D4-3550-4ABE-B004-C225B0D1C24D</title>
    <g id="Design" stroke="none" stroke-width="1" fill="none" fill-rule="evenodd">
        <g id="001-Homepage" transform="translate(-1029.000000, -1203.000000)" fill-rule="nonzero">
            <g id="Dentist-" transform="translate(1029.000000, 1203.000000)">
                <path d="M3.72400042,26.7913184 C-0.716153926,37.3617503 -1.17449244,49.5363671 2.46356951,60.3932606 C4.12504661,65.3776919 6.70320075,70.1616001 10.570432,73.7423698 C17.0731096,79.7294166 26.4117568,81.5627707 35.2634193,81.9351707 C44.1150819,82.2789246 53.081329,81.4195399 61.7611146,83.1383093 C69.6674539,84.6852018 77.0581625,88.3519099 83.6467786,92.9925873 C92.3552103,99.1228649 100.03238,107.172435 110.087182,110.724559 C117.391952,113.274067 125.355583,113.216774 133.004107,112.242805 C141.884416,111.096959 151.337648,108.289635 156.608541,101.042157 C159.902849,96.5160646 161.134633,90.8441255 161.564326,85.2581249 C162.767464,69.216277 157.783033,53.174429 149.848048,39.1664582 C143.861001,28.5673801 135.037984,18.1974713 123.006598,16.1635941 C111.118443,14.1583631 99.6886265,20.7756254 89.1468407,26.6480876 C78.6050549,32.5205498 66.1153305,37.9633196 54.8573907,33.6377499 C48.4406516,31.1741804 43.599451,25.9032875 39.1306505,20.6896869 C36.6384349,17.7964251 34.1462192,14.7885786 30.8805573,12.8119937 C22.258064,7.569747 9.3386472,12.0671937 5.84381604,21.5490716 L3.72400042,26.7913184 Z" id="Path" fill="#D9E6F4"></path>
                <path d="M30.9951419,69.0730462 L131.571799,69.0730462 C136.470292,69.0730462 140.423462,73.0262159 140.423462,77.9247087 L140.423462,87.7503406 C140.423462,104.622927 126.759245,118.287144 109.886658,118.287144 L52.6802828,118.287144 C35.8076963,118.287144 22.1434794,104.622927 22.1434794,87.7503406 L22.1434794,77.9247087 C22.1721256,73.0262159 26.1252952,69.0730462 30.9951419,69.0730462 Z" id="Path" fill="#EF9481"></path>
                <g id="Group" transform="translate(27.872711, 0.293623)">
                    <path d="M87.915056,1.57553864 C79.8654858,-1.37501554 71.2429926,0.028646157 64.3106226,4.61203128 L64.3106226,4.61203128 C64.3106226,4.61203128 64.3106226,4.61203128 64.3106226,4.61203128 C63.9955148,4.81255438 63.7090533,5.01307748 63.3939455,5.24224674 C58.3235757,8.65113943 54.6282215,9.3386472 52.6229905,9.39593951 C50.6177595,9.3386472 46.9224052,8.65113943 41.8520354,5.24224674 C41.5655739,5.04172364 41.2504661,4.81255438 40.9353584,4.61203128 C40.9353584,4.61203128 40.9353584,4.61203128 40.9353584,4.61203128 L40.9353584,4.61203128 C34.0029884,0.028646157 25.3804951,-1.37501554 17.330925,1.57553864 C4.41150819,6.30215455 -2.40627719,20.5679408 0.97396934,34.5186192 L0.97396934,34.5186192 C2.49221566,42.4249586 8.70843174,53.9407137 8.70843174,53.9407137 C14.781417,63.1361301 14.781417,76.1128393 14.781417,76.1128393 C15.0105863,87.4280713 18.4767713,95.7927492 18.4767713,95.7927492 C24.3205873,109.371028 29.0472032,114.298167 32.1123421,115.98829 C34.117573,117.076844 36.6097887,116.102875 37.3832349,113.954413 C39.4457583,108.253827 38.299912,100.232904 37.3832349,95.764103 C36.6957272,92.3552103 36.7243733,88.8030868 37.6410504,85.4514865 C40.677543,74.1935468 49.2140978,72.6753004 52.5943443,72.5320696 C55.9745909,72.6753004 64.5111457,74.1935468 67.5476383,85.4514865 C68.4643153,88.8030868 68.5216077,92.3552103 67.8054537,95.764103 C66.8887767,100.204257 65.7429304,108.225181 67.8054537,113.954413 C68.5789,116.102875 71.0711156,117.076844 73.0763466,115.98829 C76.1701316,114.326813 80.8681013,109.371028 86.7119174,95.7927492 C86.7119174,95.7927492 90.1781024,87.4567175 90.4072716,76.1128393 C90.4072716,76.1128393 90.4072716,63.107484 96.4802569,53.9407137 C96.4802569,53.9407137 102.667827,42.4249586 104.214719,34.5186192 L104.214719,34.5186192 C107.680904,20.5679408 100.834473,6.30215455 87.915056,1.57553864 Z" id="Path" fill="#161B52"></path>
                    <path d="M21.9143101,16.4715403 C21.9143101,16.4715403 43.7999741,23.9481873 62.1908069,10.7423089 C62.1908069,10.7423089 45.9484359,35.0628962 21.9143101,16.4715403 Z" id="Path" fill="#00ACD4"></path>
                </g>
            </g>
        </g>
    </g>
</svg>