<?xml version="1.0" encoding="UTF-8"?>
<svg width="162px" height="125px" viewBox="0 0 162 125" version="1.1" xmlns="http://www.w3.org/2000/svg" xmlns:xlink="http://www.w3.org/1999/xlink">
    <title>6F369C33-BB51-40E0-8BF6-CC6F3F678EEF</title>
    <g id="Design" stroke="none" stroke-width="1" fill="none" fill-rule="evenodd">
        <g id="001-Homepage" transform="translate(-249.000000, -1468.000000)" fill-rule="nonzero">
            <g id="Dermatologist" transform="translate(249.000000, 1468.000000)">
                <path d="M3.75510926,29.9978767 C-0.687958949,40.5752455 -1.14659825,52.7578519 2.49385119,63.6218703 C4.15641865,68.6095727 6.73626471,73.3966204 10.6060338,76.9797399 C17.1129789,82.9707157 26.4577546,84.8052729 35.315226,85.1779174 C44.1726975,85.5218968 53.1448288,84.6619482 61.8303105,86.3818455 C69.7418384,87.9297532 77.1373972,91.5988676 83.7303371,96.2425905 C92.4444838,102.376891 100.126692,110.431744 110.188092,113.986198 C117.497655,116.537379 125.466513,116.48005 133.120057,115.505441 C142.006193,114.358843 151.465629,111.549677 156.739981,104.297443 C160.03645,99.7683801 161.269044,94.0927187 161.699018,88.5030523 C162.902946,72.4506768 157.915244,56.3983013 149.975051,42.3811378 C143.984075,31.775104 135.155269,21.3983898 123.115987,19.3631779 C111.22003,17.356631 99.7827126,23.9782359 89.2340087,29.8545519 C78.6853048,35.702203 66.1873839,41.1772096 54.9220561,36.8488012 C48.5011059,34.383615 43.6567283,29.109263 39.1849951,23.892241 C36.6911439,20.9970804 34.1972928,17.98726 30.9294877,16.009378 C22.3013359,10.7636911 9.37344068,15.2640892 5.87631602,24.7521897 L3.75510926,29.9978767 Z" id="Path" fill="#D9E6F4"></path>
                <rect id="Rectangle" fill="#00ACD4" transform="translate(104.299957, 65.535715) rotate(-66.952625) translate(-104.299957, -65.535715) " x="97.6208877" y="61.4078779" width="13.3581387" height="8.25567369"></rect>
                <path d="M105.687694,62.2459524 C89.2626736,55.2517031 81.6091303,36.2181722 88.5747147,19.8218172 C95.568964,3.39679731 114.602495,-4.256746 130.99885,2.70883836 C147.395205,9.67442272 155.077413,28.7366186 148.111829,45.1329735 C141.146244,61.5293285 122.084048,69.2402017 105.687694,62.2459524 Z M128.590994,8.38449969 C115.290454,2.73750332 99.8973724,8.92913386 94.250376,22.2296735 C88.6033796,35.5302132 94.7950102,50.9232947 108.09555,56.5702911 C121.39609,62.2172874 136.789171,56.0256569 142.436167,42.7251172 C148.083164,29.4532425 141.891533,14.0314961 128.590994,8.38449969 Z" id="Shape" fill="#07334F"></path>
                <path d="M96.0849332,67.4629744 L75.1595152,116.623374 C74.4142263,118.400602 75.1308502,120.407149 76.7934177,121.095107 L83.2716978,123.846943 C84.9342652,124.563567 86.8834823,123.674954 87.6287711,121.926391 L108.554189,72.7659913 C109.299478,70.988764 108.582854,68.9822171 106.920287,68.2942582 L100.442007,65.5424224 C98.808104,64.8257985 96.858887,65.7144121 96.0849332,67.4629744 Z" id="Path" fill="#161B52"></path>
                <path d="M60.4830576,83.1140405 L85.6795541,63.9945147 C87.1128019,63.0485712 88.8040343,62.5612669 90.5239317,62.5899319 L100.986641,62.7905866 L99.8973724,65.3704326 C99.8973724,65.3704326 97.2315315,64.9117933 95.6549589,68.5522428 L93.3904273,73.8552597 C93.3904273,73.8552597 105.343714,76.92241 112.337963,76.0337963 C112.337963,76.0337963 121.510749,79.0722817 114.430505,87.2991241 C114.430505,87.2991241 118.09962,91.3982129 113.398567,97.9624878 C113.398567,97.9624878 116.293727,102.606211 109.614793,107.364593 C109.614793,107.364593 109.471468,112.008316 103.681147,114.043528 C103.681147,114.043528 93.4477572,116.222065 78.6566398,111.406352 C78.6566398,111.406352 62.9769088,107.192604 49.733699,107.335929 L50.2496682,83.2000354 L60.4830576,83.1140405 Z" id="Path" fill="#EF9481"></path>
                <polygon id="Path" fill="#161B52" points="50.2783332 83.1713704 50.5936477 112.524286 12.3832611 114.530833 12.3832611 80.4768645"></polygon>
                <circle id="Oval" fill="#00ACD4" cx="111.420685" cy="21.0544103" r="2.5511811"></circle>
                <circle id="Oval" fill="#00ACD4" cx="116.293727" cy="41.4925241" r="4.90170751"></circle>
                <circle id="Oval" fill="#00ACD4" cx="125.179864" cy="30.1698664" r="2.46518623"></circle>
            </g>
        </g>
    </g>
</svg>