<?xml version="1.0" encoding="UTF-8"?>
<svg width="162px" height="128px" viewBox="0 0 162 128" version="1.1" xmlns="http://www.w3.org/2000/svg" xmlns:xlink="http://www.w3.org/1999/xlink">
    <title>9AF06835-3F33-4AFF-BE4D-76E95474DAE1</title>
    <g id="Design" stroke="none" stroke-width="1" fill="none" fill-rule="evenodd">
        <g id="001-Homepage" transform="translate(-249.000000, -1738.000000)" fill-rule="nonzero">
            <g id="ENT" transform="translate(249.000000, 1738.000000)">
                <path d="M3.71845898,34.3885947 C-0.715088265,44.9432974 -1.17274475,57.0997979 2.45990363,67.940536 C4.11890841,72.9175504 6.69322616,77.69434 10.5547028,81.2697813 C17.0477042,87.2479192 26.3724552,89.0785451 35.2109462,89.450391 C44.0494371,89.7936334 53.0023422,88.9355275 61.669212,90.6517393 C69.5637864,92.19633 76.9434973,95.8575819 83.5223093,100.491354 C92.2177826,106.612509 99.8835288,114.650101 109.923368,118.196939 C117.217268,120.742654 125.16905,120.685446 132.806193,119.712926 C141.673287,118.568785 151.112452,115.765639 156.375502,108.528946 C159.664908,104.009588 160.89486,98.3460891 161.323913,92.7684006 C162.525261,76.7504235 157.548246,60.7324463 149.625069,46.7453199 C143.646931,36.1620136 134.837043,25.8075355 122.82356,23.7766848 C110.953095,21.7744377 99.5402865,28.3818532 89.0141872,34.245577 C78.4880879,40.0806972 66.0169486,45.5439716 54.7757611,41.2248385 C48.3685702,38.7649348 43.5345736,33.5018852 39.0724228,28.2960426 C36.5839156,25.407086 34.0954085,22.4037153 30.834606,20.4300717 C22.2249433,15.1956256 9.32475097,19.6863799 5.83512024,29.1541486 L3.71845898,34.3885947 Z" id="Path" fill="#D9E6F4"></path>
                <path d="M64.1863226,127.693311 L64.1863226,110.845832 L44.907543,110.845832 C44.907543,110.845832 36.8985545,111.332092 37.2990039,102.236169 L37.2990039,80.5260895 L28.3174953,80.5260895 C24.8850716,80.5260895 22.7398068,76.8076305 24.4274151,73.8328633 L35.9832415,53.6387707 C35.9832415,53.6387707 36.9557615,50.4065718 36.6411227,38.0784501 C36.6411227,38.0784501 35.1823426,2.09520862 85.4101423,0.148999882 C85.4101423,0.148999882 126.570623,-0.650730321 132.091104,39.6802478 C132.091104,39.6802478 134.036144,57.5002474 123.510045,71.4587703 C123.510045,71.4587703 113.126963,86.5328309 113.126963,105.325351 L113.126963,127.664708 L64.1863226,127.664708 L64.1863226,127.693311 Z" id="Path" fill="#161B52"></path>
                <path d="M95.0495322,45.0577116 L102.114604,45.0577116 C102.114604,45.0577116 102.429243,31.5854487 113.012549,31.2708098 C123.595856,30.956171 124.711393,38.1356572 124.883015,42.168755 C125.083239,47.288787 124.568376,52.7520613 118.790463,61.7335699 C118.790463,61.7335699 116.216145,66.538963 116.216145,68.798642 C116.216145,68.798642 116.645198,73.2893963 111.72539,73.2893963 C111.72539,73.2893963 105.518424,73.7184492 105.947477,66.8822054 L96.1078628,67.5114831 L95.0495322,45.0577116 Z" id="Path" fill="#EF9481"></path>
                <path d="M45.336596,56.2702956 L45.336596,43.1126715 C45.336596,43.1126715 43.1055206,25.1496543 53.3455846,19.0571023 C53.3455846,19.0571023 62.0124543,15.538868 61.0399343,27.0660908 C61.0399343,27.0660908 59.6955683,35.0750794 67.275504,34.7604406 C67.275504,34.7604406 95.6788098,31.5568451 97.2806075,40.1951114 C98.8824053,48.8619811 97.2806075,89.7364263 97.2806075,89.7364263 L45.336596,56.2702956 Z" id="Path" fill="#00ACD4"></path>
                <path d="M37.2704004,80.554693 L68.4196452,80.554693 L80.8335775,89.2501663 C82.1493399,90.1940828 82.5497893,91.9675017 81.7202869,93.3690747 L81.7202869,93.3690747 C80.7477669,94.999476 78.6311056,95.5143395 77.0007044,94.5418195 L67.8475746,88.906924 C67.3613145,88.6208887 66.8178475,88.4492675 66.2743804,88.4492675 L54.3181046,88.4492675 C52.7163069,88.4492675 51.429148,89.7364263 51.429148,91.3382241 L51.429148,103.208689 C51.429148,104.724676 52.6590998,105.954628 54.1750869,105.954628 L65.7023098,105.954628 C66.846451,105.954628 67.7903675,105.010712 67.7903675,103.86657 L67.7903675,103.86657 C67.7903675,102.722429 66.846451,101.778513 65.7023098,101.778513 L57.2356647,101.778513 C56.5205764,101.778513 55.9199023,101.206442 55.9199023,100.46275 L55.9199023,94.1413701 C55.9199023,93.6265065 56.3203517,93.2260571 56.8352153,93.2260571 L64.9014109,93.2260571 L79.6608327,102.40779 L79.6608327,127.407276 L97.2806075,127.407276 L97.2806075,80.5260895 L72.9676065,65.8810818 C70.9367559,64.65113 69.7068041,62.4486582 69.7068041,60.1031687 L69.7068041,55.2977755 C69.7068041,52.6376472 67.5615393,50.4923824 64.9014109,50.4923824 L45.336596,50.4923824 L37.2704004,80.554693 Z" id="Path" fill="#EA6957"></path>
                <path d="M29.9478965,38.8221419 C29.919293,38.5933137 29.3186189,33.330264 30.834606,26.7228485 C32.236179,20.6016929 35.7544132,12.1922549 44.7359218,6.81479116 L45.5654242,8.18776063 C29.3186189,17.9415646 31.5496942,38.4216925 31.5496942,38.6219172 L29.9478965,38.8221419 Z" id="Path" fill="#00ACD4"></path>
                <path d="M132.94921,69.342109 L131.519034,68.6270208 C142.960446,45.9730245 134.608215,30.2124792 134.522404,30.040858 L135.923977,29.2685627 C136.009788,29.4401839 138.21226,33.5018852 138.927348,40.5097502 C139.585229,46.9169411 139.098969,57.1284015 132.94921,69.342109 Z" id="Path" fill="#00ACD4"></path>
            </g>
        </g>
    </g>
</svg>