<?xml version="1.0" encoding="UTF-8"?>
<svg width="162px" height="103px" viewBox="0 0 162 103" version="1.1" xmlns="http://www.w3.org/2000/svg" xmlns:xlink="http://www.w3.org/1999/xlink">
    <title>3CBEEFA1-2E87-4AC5-B5EF-BC1BC517A6C1</title>
    <g id="Design" stroke="none" stroke-width="1" fill="none" fill-rule="evenodd">
        <g id="001-Homepage" transform="translate(-1029.000000, -1480.000000)" fill-rule="nonzero">
            <g id="Eye-Doctor-" transform="translate(1029.000000, 1480.000000)">
                <path d="M3.70002058,16.6142397 C-0.745740581,27.1980195 -1.20465786,39.3880097 2.43799805,50.2586128 C4.1015732,55.2493383 6.6829829,60.0392874 10.5550975,63.6245786 C17.0659864,69.6191856 26.416426,71.4548547 35.279266,71.827725 C44.1421059,72.171913 53.1196752,71.3114431 61.8104213,73.0323829 C69.7267443,74.5812287 77.1267855,78.252567 83.7237214,82.8991044 C92.4431497,89.037123 100.130014,97.0968578 110.197512,100.653467 C117.511506,103.206194 125.485194,103.148829 133.143376,102.17363 C142.034898,101.026337 151.500067,98.2154687 156.777616,90.9588392 C160.076084,86.427031 161.309424,80.7479297 161.739659,75.1548753 C162.944317,59.0927705 157.953592,43.0306657 150.008586,29.0050063 C144.013979,18.3925441 135.179822,8.00954067 123.133243,5.97309523 C111.230076,3.96533213 99.7858262,10.5909504 89.2307288,16.470828 C78.6756313,22.3220234 66.1701354,27.8003484 54.8979797,23.4693166 C48.4731378,21.0026362 43.625824,15.7250874 39.1513805,10.5049034 C36.6560178,7.60798804 34.1606551,4.59634339 30.8908695,2.61726262 C22.2574881,-2.63160378 9.32175727,1.87152204 5.822513,11.3653733 L3.70002058,16.6142397 Z" id="Path" fill="#D9E6F4"></path>
                <path d="M6.28143028,52.8400225 C6.28143028,52.8400225 44.1421059,23.5266812 110.226194,11.07855 C114.270403,10.3041271 126.91931,8.66923426 124.882865,17.5607566 C124.882865,17.5607566 122.272773,25.2763034 108.93549,18.0196739 C108.93549,18.0196739 56.1313199,24.6166098 20.507866,54.1307274 L6.28143028,52.8400225 Z" id="Path" fill="#161B52"></path>
                <path d="M92.9594317,61.9323212 C81.1423117,55.5935262 71.2469078,61.5881332 70.8453552,61.8462742 L67.8623929,57.142372 C68.3786748,56.7981841 80.8268061,49.1113196 95.598206,57.0276427 L92.9594317,61.9323212 Z" id="Path" fill="#161B52"></path>
                <path d="M156.46211,52.8400225 C156.46211,52.8400225 118.601435,23.5266812 52.5173463,11.07855 C48.4731378,10.3041271 35.8242302,8.66923426 37.8606757,17.5607566 C37.8606757,17.5607566 40.4707677,25.2763034 53.8080512,18.0196739 C53.8080512,18.0196739 106.612221,24.6166098 142.235675,54.1307274 L156.46211,52.8400225 Z" id="Path" fill="#161B52"></path>
                <path d="M6.13801863,59.5516878 L6.13801863,68.3858454 C6.13801863,82.6696458 17.72568,94.2573071 32.0094803,94.2573071 L45.8630457,94.2573071 C60.1468461,94.2573071 71.7345074,82.6696458 71.7345074,68.3858454 L71.7345074,58.3470299 C71.7345074,53.5570808 67.8623929,49.6562839 63.0437614,49.6562839 L6.28143028,49.6562839 C4.99072543,49.6562839 3.95816155,50.6888478 3.95816155,51.9795526 L3.95816155,57.1997367 C3.95816155,58.4617592 4.90467844,59.4656408 6.13801863,59.5516878 L6.13801863,59.5516878 Z" id="Path" fill="#161B52"></path>
                <path d="M63.8181844,62.9362027 L63.8181844,68.5005747 C63.8181844,79.1990838 55.1274383,87.8898298 44.4289292,87.8898298 L35.2505836,87.8898298 C34.3040667,87.8898298 33.3862322,87.8324652 32.4970799,87.7177359 C31.6939747,87.6316889 30.8908695,87.4882772 30.0877642,87.3161832 C28.9691533,87.0580423 27.9079071,86.7425366 26.8753433,86.3696664 C25.7280501,85.9394314 24.6381215,85.4231495 23.6055576,84.8208205 C22.4295821,84.1611269 21.3109712,83.386704 20.249725,82.5262341 C18.1272326,80.8052943 16.3202458,78.7114842 14.9148116,76.3595332 C12.7636369,72.7742419 11.5302967,68.5866217 11.5302967,64.1121782 L11.5302967,62.9075204 C11.5302967,58.0315243 15.4884582,54.1020451 20.335772,54.1020451 L55.0413914,54.1020451 C59.8887051,54.1307274 63.8181844,58.0888889 63.8181844,62.9362027 Z" id="Path" fill="#00ACD4"></path>
                <path d="M156.634204,59.5516878 L156.634204,68.3858454 C156.634204,82.6696458 145.046543,94.2573071 130.762743,94.2573071 L116.909177,94.2573071 C102.625377,94.2573071 91.0377156,82.6696458 91.0377156,68.3858454 L91.0377156,58.3470299 C91.0377156,53.5570808 94.9098301,49.6562839 99.7284616,49.6562839 L156.490793,49.6562839 C157.781498,49.6562839 158.814061,50.6888478 158.814061,51.9795526 L158.814061,57.1997367 C158.814061,58.4617592 157.867545,59.4656408 156.634204,59.5516878 L156.634204,59.5516878 Z" id="Path" fill="#161B52"></path>
                <path d="M151.270609,62.9362027 L151.270609,64.1408606 C151.270609,77.2486854 140.629464,87.8898298 127.521639,87.8898298 L118.343294,87.8898298 C118.228564,87.8898298 118.113835,87.8898298 117.999106,87.8898298 C117.167318,87.8898298 116.364213,87.8037829 115.561108,87.6890535 C114.35645,87.5169596 113.209157,87.2301363 112.090546,86.857266 C111.057982,86.513078 110.0541,86.0541607 109.078901,85.5378788 C108.132384,85.0215968 107.243232,84.4479502 106.411444,83.7882566 C103.830035,81.7804935 101.764907,79.1130369 100.44552,76.0440275 C99.4703206,73.7207588 98.9253563,71.1680314 98.9253563,68.4718924 L98.9253563,62.9075204 C98.9253563,58.0315243 102.883518,54.1020451 107.730832,54.1020451 L142.436451,54.1020451 C147.341129,54.1307274 151.270609,58.0888889 151.270609,62.9362027 Z" id="Path" fill="#00ACD4"></path>
                <path d="M36.4839238,54.1307274 L20.249725,82.5549165 C18.1272326,80.8339767 16.3202458,78.7401666 14.9148116,76.3882155 L26.8179786,54.1307274 L36.4839238,54.1307274 Z" id="Path" fill="#FFFFFF"></path>
                <path d="M44.8591642,54.1307274 L26.8753433,86.3983487 C25.7280501,85.9681137 24.6381215,85.4518318 23.6055576,84.8495029 L40.8723203,54.1307274 L44.8591642,54.1307274 Z" id="Path" fill="#FFFFFF"></path>
                <path d="M51.9150174,54.1307274 L32.4970799,87.7464182 C31.6939747,87.6603712 30.8908695,87.5169596 30.0877642,87.3448656 C33.6730555,80.9773883 45.3754461,60.182699 48.7886434,54.1307274 L51.9150174,54.1307274 Z" id="Path" fill="#FFFFFF"></path>
                <path d="M122.100679,54.1307274 L106.440127,83.816939 C103.858717,81.8091759 101.793589,79.1417192 100.474202,76.0727099 C103.485847,70.3075615 110.0541,58.4043946 112.406051,54.1307274 L122.100679,54.1307274 Z" id="Path" fill="#FFFFFF"></path>
                <path d="M130.103049,54.1307274 L112.090546,86.8859483 C111.057982,86.5417603 110.0541,86.0828431 109.078901,85.5665611 C111.918452,80.2890124 123.448749,59.5230054 126.460393,54.1307274 L130.103049,54.1307274 L130.103049,54.1307274 Z" id="Path" fill="#FFFFFF"></path>
                <path d="M135.925562,54.1307274 L117.999106,87.9185122 C117.167318,87.9185122 116.364213,87.8324652 115.561108,87.7177359 L133.516246,54.1307274 L135.925562,54.1307274 Z" id="Path" fill="#FFFFFF"></path>
            </g>
        </g>
    </g>
</svg>