<?xml version="1.0" encoding="UTF-8"?>
<svg width="24px" height="24px" viewBox="0 0 24 24" version="1.1" xmlns="http://www.w3.org/2000/svg" xmlns:xlink="http://www.w3.org/1999/xlink">
    <title>26DD7F9B-A3D3-48F2-A083-37CE926EDB78</title>
    <defs>
        <circle id="path-1" cx="12" cy="12" r="12"></circle>
    </defs>
    <g id="Design" stroke="none" stroke-width="1" fill="none" fill-rule="evenodd">
        <g id="001-Homepage" transform="translate(-1266.000000, -30.000000)">
            <g id="Flag" transform="translate(1266.000000, 30.000000)">
                <g id="Flag-/-USA">
                    <g id="Flag">
                        <mask id="mask-2" fill="white">
                            <use xlink:href="#path-1"></use>
                        </mask>
                        <use id="Mask" fill="#FFFFFF" xlink:href="#path-1"></use>
                        <polygon id="Path-2" fill="#C1002E" fill-rule="nonzero" mask="url(#mask-2)" points="24 10.6875 0 10.6875 0 13.3125 24 13.3125"></polygon>
                        <polygon id="Path-2" fill="#C1002E" fill-rule="nonzero" mask="url(#mask-2)" points="24 5.34375 0 5.34375 0 7.96875 24 7.96875"></polygon>
                        <polygon id="Path-2" fill="#C1002E" fill-rule="nonzero" mask="url(#mask-2)" points="24 0 0 0 0 2.625 24 2.625"></polygon>
                        <polygon id="Path-2" fill="#C1002E" fill-rule="nonzero" mask="url(#mask-2)" points="24 21.375 0 21.375 0 24 24 24"></polygon>
                        <polygon id="Path-2" fill="#C1002E" fill-rule="nonzero" mask="url(#mask-2)" points="24 16.03125 0 16.03125 0 18.65625 24 18.65625"></polygon>
                        <g id="Group" mask="url(#mask-2)">
                            <g transform="translate(0.000000, -0.046875)">
                                <rect id="Base" fill="#3E3972" x="0" y="0" width="13.125" height="13.359375"></rect>
                                <path d="M11.0625,10.5 L11.3049614,11.1975305 L12.043277,11.2125762 L11.4548108,11.6587195 L11.6686535,12.3655488 L11.0625,11.94375 L10.4563465,12.3655488 L10.6701892,11.6587195 L10.081723,11.2125762 L10.8200386,11.1975305 L11.0625,10.5 Z M6.5625,10.5 L6.80496142,11.1975305 L7.54327703,11.2125762 L6.95481081,11.6587195 L7.16865354,12.3655488 L6.5625,11.94375 L5.95634646,12.3655488 L6.17018919,11.6587195 L5.58172297,11.2125762 L6.32003858,11.1975305 L6.5625,10.5 Z M2.0625,10.5 L2.30496142,11.1975305 L3.04327703,11.2125762 L2.45481081,11.6587195 L2.66865354,12.3655488 L2.0625,11.94375 L1.45634646,12.3655488 L1.67018919,11.6587195 L1.08172297,11.2125762 L1.82003858,11.1975305 L2.0625,10.5 Z M8.8125,8.625 L9.05496142,9.32253049 L9.79327703,9.33757622 L9.20481081,9.78371951 L9.41865354,10.4905488 L8.8125,10.06875 L8.20634646,10.4905488 L8.42018919,9.78371951 L7.83172297,9.33757622 L8.57003858,9.32253049 L8.8125,8.625 Z M4.3125,8.625 L4.55496142,9.32253049 L5.29327703,9.33757622 L4.70481081,9.78371951 L4.91865354,10.4905488 L4.3125,10.06875 L3.70634646,10.4905488 L3.92018919,9.78371951 L3.33172297,9.33757622 L4.07003858,9.32253049 L4.3125,8.625 Z M11.0625,6.75 L11.3049614,7.44753049 L12.043277,7.46257622 L11.4548108,7.90871951 L11.6686535,8.61554878 L11.0625,8.19375 L10.4563465,8.61554878 L10.6701892,7.90871951 L10.081723,7.46257622 L10.8200386,7.44753049 L11.0625,6.75 Z M6.5625,6.75 L6.80496142,7.44753049 L7.54327703,7.46257622 L6.95481081,7.90871951 L7.16865354,8.61554878 L6.5625,8.19375 L5.95634646,8.61554878 L6.17018919,7.90871951 L5.58172297,7.46257622 L6.32003858,7.44753049 L6.5625,6.75 Z M2.0625,6.75 L2.30496142,7.44753049 L3.04327703,7.46257622 L2.45481081,7.90871951 L2.66865354,8.61554878 L2.0625,8.19375 L1.45634646,8.61554878 L1.67018919,7.90871951 L1.08172297,7.46257622 L1.82003858,7.44753049 L2.0625,6.75 Z M8.8125,4.875 L9.05496142,5.57253049 L9.79327703,5.58757622 L9.20481081,6.03371951 L9.41865354,6.74054878 L8.8125,6.31875 L8.20634646,6.74054878 L8.42018919,6.03371951 L7.83172297,5.58757622 L8.57003858,5.57253049 L8.8125,4.875 Z M4.3125,4.875 L4.55496142,5.57253049 L5.29327703,5.58757622 L4.70481081,6.03371951 L4.91865354,6.74054878 L4.3125,6.31875 L3.70634646,6.74054878 L3.92018919,6.03371951 L3.33172297,5.58757622 L4.07003858,5.57253049 L4.3125,4.875 Z M11.0625,3 L11.3049614,3.69753049 L12.043277,3.71257622 L11.4548108,4.15871951 L11.6686535,4.86554878 L11.0625,4.44375 L10.4563465,4.86554878 L10.6701892,4.15871951 L10.081723,3.71257622 L10.8200386,3.69753049 L11.0625,3 Z M6.5625,3 L6.80496142,3.69753049 L7.54327703,3.71257622 L6.95481081,4.15871951 L7.16865354,4.86554878 L6.5625,4.44375 L5.95634646,4.86554878 L6.17018919,4.15871951 L5.58172297,3.71257622 L6.32003858,3.69753049 L6.5625,3 Z M8.8125,1.125 L9.05496142,1.82253049 L9.79327703,1.83757622 L9.20481081,2.28371951 L9.41865354,2.99054878 L8.8125,2.56875 L8.20634646,2.99054878 L8.42018919,2.28371951 L7.83172297,1.83757622 L8.57003858,1.82253049 L8.8125,1.125 Z" id="Combined-Shape" fill="#FFFFFF"></path>
                            </g>
                        </g>
                    </g>
                </g>
            </g>
        </g>
    </g>
</svg>