<?xml version="1.0" encoding="UTF-8"?>
<svg width="162px" height="126px" viewBox="0 0 162 126" version="1.1" xmlns="http://www.w3.org/2000/svg" xmlns:xlink="http://www.w3.org/1999/xlink">
    <title>04EA5B81-B926-44D2-89FC-654EBA34E4AB</title>
    <g id="Design" stroke="none" stroke-width="1" fill="none" fill-rule="evenodd">
        <g id="001-Homepage" transform="translate(-639.000000, -1739.000000)" fill-rule="nonzero">
            <g id="Gastroenrerologist" transform="translate(639.000000, 1739.000000)">
                <path d="M3.88084906,33.7665678 C-0.556679168,44.3307479 -1.0147466,56.498164 2.62116363,67.3486363 C4.28165806,72.3301196 6.85828735,77.1111984 10.7232313,80.6898502 C17.222063,86.673356 26.5551868,88.5056257 35.4016141,88.8778055 C44.2480413,89.2213561 53.2089854,88.3624796 61.8836374,90.0802325 C69.7853005,91.6262101 77.1716378,95.2907495 83.7563571,99.9286822 C92.4596383,106.055334 100.132268,114.100143 110.181122,117.650166 C117.481572,120.198166 125.440493,120.140908 133.084493,119.167514 C141.95955,118.022346 151.407191,115.216683 156.674966,107.973491 C159.967326,103.450076 161.198382,97.7814912 161.62782,92.1987944 C162.830247,76.1664343 157.848764,60.1340743 149.918472,46.1343884 C143.934966,35.5415791 135.117168,25.1778035 123.092898,23.1451293 C111.211774,21.1410843 99.7887172,27.7544328 89.2531663,33.6234218 C78.7176154,39.4924107 66.2352779,44.9319614 54.9839967,40.6089501 C48.5710527,38.1468376 43.7327155,32.8790622 39.266558,27.6685452 C36.7758164,24.7769945 34.2850747,21.770927 31.0213443,19.7955112 C22.4039508,14.556365 9.49217507,19.0511516 5.99941092,28.5274216 L3.88084906,33.7665678 Z" id="Path" fill="#D9E6F4"></path>
                <path d="M70.9590983,14.8712864 L85.7604021,6.11074676 L97.2407171,22.1144776 C97.2407171,22.1144776 99.2447621,-1.13244448 122.319909,0.671196026 C122.319909,0.671196026 153.439865,3.39097139 154.327371,42.0404108 C154.327371,42.0404108 157.390696,79.9454906 114.360987,112.296503 C114.360987,112.296503 77.0284918,142.614841 51.9493,110.006166 C51.9493,110.006166 40.1540637,99.6996485 30.44876,97.09439 C30.44876,97.09439 30.5632768,98.8694013 30.5632768,103.335559 L30.5632768,119.425177 L11.2099279,119.425177 L11.2099279,87.3890863 C11.2099279,87.3890863 11.6107369,75.2502994 26.7269621,74.9353781 C26.7269621,74.9353781 37.4915467,74.8494904 51.0617943,81.9781648 C51.0617943,81.9781648 66.0348734,90.7959628 79.1184244,76.653131 C79.1184244,76.653131 90.1406719,65.3159621 86.9055707,43.1855794 L70.9590983,14.8712864 Z" id="Path" fill="#EA6957"></path>
                <path d="M148.801932,59.0747933 C147.484988,64.2280519 146.024898,67.4917824 146.024898,67.4917824 C140.041393,87.2173111 115.620673,106.312997 115.620673,106.312997 C98.7866947,120.226795 82.2962672,121.51511 82.2962672,121.51511 C67.4090757,123.461896 48.5137943,100.816188 48.5137943,100.816188 C46.7674122,93.0290416 51.2621988,86.5874683 51.2621988,86.5874683 C72.3046714,90.9677381 83.4414358,79.1438726 83.4414358,79.1438726 C90.5128517,73.4180297 94.3777957,57.1280068 95.8378856,49.4553773 C96.3245822,46.9360064 96.553616,45.3327704 96.553616,45.3327704 C100.590335,6.51155576 112.729122,5.53816247 112.729122,5.53816247 C132.941347,0.528049954 144.106741,17.6769494 144.106741,17.6769494 C153.439865,32.1347026 151.321303,49.1404559 148.801932,59.0747933 Z" id="Path" fill="#00ACD4"></path>
                <path d="M148.801932,59.0747933 C143.79182,57.299782 138.982112,54.4654898 133.714336,54.7804112 C129.93528,55.0094449 126.242111,56.8703438 122.491684,56.2977595 C118.712628,55.7251753 115.334381,52.7763662 111.583954,53.3775797 C109.665796,53.692501 107.948043,54.9235572 106.001257,55.0667033 C102.193571,55.3243662 99.502425,51.6025684 96.2100654,49.684411 C96.0955485,49.6271526 95.9524025,49.5412649 95.8378856,49.4840065 C96.3245822,46.9646357 96.553616,45.3613997 96.553616,45.3613997 C100.590335,6.54018497 112.729122,5.56679168 112.729122,5.56679168 C132.941347,0.556679168 144.106741,17.7055786 144.106741,17.7055786 C153.439865,32.1347026 151.321303,49.1404559 148.801932,59.0747933 Z" id="Path" fill="#FFFFFF"></path>
                <circle id="Oval" fill="#FFFFFF" cx="69.040941" cy="95.8060754" r="5.49680916"></circle>
                <circle id="Oval" fill="#FFFFFF" cx="76.9712333" cy="110.521492" r="2.43348322"></circle>
                <circle id="Oval" fill="#FFFFFF" cx="81.4946492" cy="92.8858955" r="3.40687651"></circle>
                <circle id="Oval" fill="#FFFFFF" cx="94.9217507" cy="108.74648" r="5.81173052"></circle>
                <circle id="Oval" fill="#FFFFFF" cx="101.220178" cy="91.1108842" r="6.29842716"></circle>
                <circle id="Oval" fill="#FFFFFF" cx="97.6128969" cy="80.5467041" r="1.88952815"></circle>
                <circle id="Oval" fill="#FFFFFF" cx="100.876627" cy="64.4570856" r="3.26373044"></circle>
                <circle id="Oval" fill="#FFFFFF" cx="114.561392" cy="69.3813105" r="6.06939345"></circle>
                <circle id="Oval" fill="#FFFFFF" cx="119.571504" cy="85.1273784" r="2.66251694"></circle>
                <circle id="Oval" fill="#FFFFFF" cx="134.544583" cy="70.4119622" r="5.1818878"></circle>
                <circle id="Oval" fill="#FFFFFF" cx="124.524358" cy="63.4550631" r="2.26170793"></circle>
                <circle id="Oval" fill="#00ACD4" cx="121.031594" cy="46.3920514" r="5.75447209"></circle>
                <circle id="Oval" fill="#00ACD4" cx="139.382921" cy="47.5944784" r="3.89357315"></circle>
                <circle id="Oval" fill="#00ACD4" cx="108.091189" cy="38.9484556" r="2.66251694"></circle>
                <circle id="Oval" fill="#00ACD4" cx="121.403774" cy="33.251242" r="1.83226972"></circle>
                <circle id="Oval" fill="#00ACD4" cx="112.07065" cy="23.6604552" r="1.28831465"></circle>
                <circle id="Oval" fill="#00ACD4" cx="131.39537" cy="25.0346575" r="1.37420229"></circle>
                <circle id="Oval" fill="#00ACD4" cx="136.892179" cy="34.6254443" r="1.37420229"></circle>
            </g>
        </g>
    </g>
</svg>