<?xml version="1.0" encoding="UTF-8"?>
<svg width="481px" height="541px" viewBox="0 0 481 541" version="1.1" xmlns="http://www.w3.org/2000/svg" xmlns:xlink="http://www.w3.org/1999/xlink">
    <title>BCFD380F-F545-408F-8776-E1F15F81BDD8</title>
    <g id="Design" stroke="none" stroke-width="1" fill="none" fill-rule="evenodd">
        <g id="001-Homepage" transform="translate(-118.000000, -5313.000000)" fill-rule="nonzero">
            <g id="Group-5" transform="translate(120.000000, 5314.000000)">
                <polygon id="Path" fill="#1C1E4E" points="193.031998 383.335996 295.775997 379.663996 316.151996 466.135995 328.535996 539.719994 256.247997 539.575994 244.439997 508.975994 238.391997 539.575994 164.159998 539.503994 175.535998 385.063996"></polygon>
                <polygon id="Path" fill="#FEAF83" points="261.863997 197.647998 221.975997 197.647998 223.487997 149.407998 223.991997 131.551999 223.991997 131.191999 236.807997 131.911999 260.783997 133.135999 260.927997 138.103999"></polygon>
                <path d="M260.927997,138.103999 C256.031997,145.447999 242.207997,156.247998 223.487997,149.335998 L224.063997,131.551999 L236.879997,131.839999 L260.855997,133.135999 L260.927997,138.103999 Z" id="Path" fill="#0C0F0C"></path>
                <path d="M279.431997,85.5439992 L279.431997,67.3999994 L244.295997,51.1999996 L244.295997,50.6959996 L243.791997,50.9119996 L243.287997,50.6959996 L243.287997,51.1999996 L209.087998,67.3999994 L209.087998,85.4719992 C209.087998,85.4719992 191.951998,90.3679991 212.111998,105.847999 C212.111998,105.847999 213.911998,140.119999 243.287997,142.567999 L243.287997,142.639999 C243.431997,142.639999 243.647997,142.639999 243.791997,142.567999 C243.935997,142.567999 244.151997,142.567999 244.295997,142.639999 L244.295997,142.567999 C273.671997,140.119999 276.407997,105.847999 276.407997,105.847999 C296.567997,90.3679991 279.431997,85.5439992 279.431997,85.5439992 Z" id="Path" fill="#FEAF83"></path>
                <polygon id="Path" fill="#3578C4" points="210.455998 173.023998 229.967997 173.023998 242.927997 183.463998 252.935997 173.023998 273.455997 178.279998 245.231997 307.735997 221.975997 231.055998"></polygon>
                <path d="M215.711997,55.3759996 C215.711997,55.3759996 196.199998,58.5439995 209.087998,85.5439992 L210.167998,95.0479991 L214.199998,99.079999 C214.199998,99.079999 209.951998,67.0399994 220.319997,62.1439995 C220.319997,62.1439995 257.831997,57.9679995 270.143997,65.7439994 C270.143997,65.7439994 274.895997,70.9999994 275.327997,94.1839991 L278.351997,91.5919991 C278.351997,91.5919991 283.103997,66.6079994 276.479997,55.3759996 C276.479997,55.3759996 241.199997,10.4480001 216.071997,40.3999997 C213.551998,43.3519997 212.399998,49.3279996 215.711997,55.3759996 Z" id="Path" fill="#161B52"></path>
                <path d="M328.463996,431.215995 L334.295996,488.599995 C313.415996,514.087994 262.007997,518.263994 262.007997,518.263994 L242.639997,402.991996 L223.775997,518.047994 C190.151998,520.063994 153.431998,501.271994 153.431998,501.271994 L161.063998,402.343996 L164.663998,355.759996 L165.599998,343.735996 L137.303998,243.727997 L157.103998,191.671998 C158.831998,187.135998 162.143998,183.391998 166.463998,181.159998 L210.599998,157.831998 L213.695998,156.175998 L223.631997,150.919998 L242.639997,287.359997 L243.359997,292.399997 L244.295997,299.095997 L245.663997,287.287997 L246.455997,280.591997 L261.575997,150.847998 L273.887997,157.183998 L276.767997,158.695998 L320.183996,180.943998 C324.791996,183.319998 328.391996,187.135998 330.479996,191.887998 L349.631996,234.943997 L356.255996,249.847998 L318.599996,334.663996 L323.495996,382.543996 L323.783996,385.279996 L328.463996,431.215995 Z" id="Path" fill="#FFFFFF"></path>
                <ellipse id="Oval" fill="#0C0F0C" cx="227.591997" cy="86.4079992" rx="1.79999998" ry="2.73599997"></ellipse>
                <ellipse id="Oval" fill="#0C0F0C" cx="259.271997" cy="86.4079992" rx="1.79999998" ry="2.73599997"></ellipse>
                <path d="M223.919997,151.855998 C223.919997,151.855998 213.335998,175.399998 226.583997,188.647998 L234.359997,178.783998 L242.999997,187.495998 L250.343997,178.567998 L261.791997,188.647998 C261.791997,188.647998 273.743997,163.159998 261.503997,150.919998 L243.287997,180.655998 C243.287997,180.655998 229.607997,167.119998 223.919997,151.855998 Z" id="Path" fill="#243942"></path>
                <polygon id="Path" fill="#0C0F0C" points="243.071997 108.871999 235.151997 106.351999 239.903997 88.9279992 241.343997 89.3599992 237.023997 105.343999 243.575997 107.431999"></polygon>
                <path d="M231.983997,118.591999 L254.015997,118.591999 C254.015997,118.591999 244.511997,133.711999 231.983997,118.591999 Z" id="Path" fill="#F5F5F5"></path>
                <polygon id="Path" fill="#0C0F0C" points="275.543997 188.647998 286.775997 196.351998 245.663997 287.287997 243.359997 292.399997 243.071997 293.047997 199.151998 198.079998 207.143998 188.719998 199.151998 180.871998 210.599998 157.759998 213.695998 156.175998 201.599998 180.439998 209.951998 188.575998 201.599998 198.439998 242.639997 287.359997 242.999997 288.151997 246.455997 280.663997 284.183997 197.071998 271.943997 188.647998 284.183997 180.295998 273.815997 157.183998 276.767997 158.695998 286.775997 181.015998"></polygon>
                <path d="M314.855996,434.239995 C281.447997,432.727995 271.439997,406.735995 271.367997,406.447995 L273.311997,405.727995 C273.383997,405.943995 282.959997,430.711995 314.999996,432.151995 L314.855996,434.239995 Z" id="Path" fill="#0C0F0C"></path>
                <path d="M183.383998,441.367995 L182.951998,439.351995 C207.431998,434.095995 213.695998,408.751995 213.767998,408.463995 L215.783997,408.967995 C215.711997,409.255995 209.159998,435.823995 183.383998,441.367995 Z" id="Path" fill="#0C0F0C"></path>
                <polygon id="Path" fill="#C3DFF4" points="148.031998 139.535999 129.023999 117.935999 63.4319993 117.935999 63.4319993 58.8239996 160.559998 58.8239996 160.559998 117.935999 148.031998 117.935999"></polygon>
                <polygon id="Path" fill="#0C0F0C" points="333.791996 384.127996 323.783996 385.207996 161.135998 402.343996 164.663998 355.759996 323.495996 382.399996"></polygon>
                <rect id="Rectangle" fill="#19B1DB" x="68.6159992" y="239.695997" width="347.039996" height="144.431998"></rect>
                <g id="Group" transform="translate(322.903996, 0.000000)">
                    <path d="M54.8079993,0.519999971 C24.9999997,0.519999971 0.735999968,24.7839997 0.735999968,54.5919993 C0.735999968,84.399999 24.9999997,108.663999 54.8079993,108.663999 C84.615999,108.663999 108.879999,84.399999 108.879999,54.5919993 C108.879999,24.7839997 84.615999,0.519999971 54.8079993,0.519999971 Z" id="Path" stroke="#1C1E4E" stroke-width="3"></path>
                    <circle id="Oval" fill="#1C1E4E" cx="53.0960037" cy="33" r="14"></circle>
                    <path d="M67.2481776,72.7449393 C67.2481776,66.5910931 71.4220907,61.3441296 77.0960037,59.7246964 C71.4873081,52.534413 63.0090472,48 53.5525255,48 C36.7264385,48 23.0960037,62.3157895 23.0960037,80 L69.4003515,80 C68.0307863,77.9271255 67.2481776,75.4008097 67.2481776,72.7449393 Z" id="Path" fill="#1C1E4E"></path>
                    <circle id="Oval" fill="#EA6957" cx="82.0960037" cy="73" r="12"></circle>
                    <polygon id="Path" fill="#FFFFFF" points="83.2311389 67 83.2311389 71.9263158 88.0960037 71.9263158 88.0960037 74.0736842 83.2311389 74.0736842 83.2311389 79 80.9608686 79 80.9608686 74.0736842 76.0960037 74.0736842 76.0960037 71.9263158 80.9608686 71.9263158 80.9608686 67"></polygon>
                </g>
                <path d="M121.895999,231.847998 C121.967999,231.919998 122.039999,231.919998 122.111999,231.991998 C122.111999,231.991998 126.287999,224.935998 131.975998,231.991998 C131.975998,231.991998 137.591998,224.935998 143.207998,231.991998 C143.207998,231.991998 143.279998,231.919998 143.423998,231.847998 C147.599998,229.039998 153.215998,232.639998 152.423998,237.607997 L150.623998,249.991997 C150.263998,252.511997 148.175998,254.599997 145.655998,254.887997 C144.287998,255.031997 142.775998,254.599997 141.767998,253.015997 C141.767998,253.015997 136.151998,258.631997 131.903998,253.015997 C131.903998,253.015997 127.727999,257.191997 123.479999,253.015997 C123.479999,253.015997 122.615999,253.447997 121.319999,253.807997 C118.223999,254.671997 114.983999,252.511997 114.551999,249.271997 L112.823999,237.319997 C112.103999,232.351998 117.791999,228.823998 121.895999,231.847998 Z" id="Path" fill="#F6C8B9"></path>
                <rect id="Rectangle" fill="#2F221C" transform="translate(123.518790, 241.767159) rotate(-3.813985) translate(-123.518790, -241.767159) " x="122.83478" y="231.219004" width="1.36802019" height="21.0963113"></rect>
                <rect id="Rectangle" fill="#2F221C" x="131.183998" y="231.991998" width="1.36799998" height="21.0959998"></rect>
                <rect id="Rectangle" fill="#2F221C" transform="translate(142.472157, 242.479813) rotate(-86.193438) translate(-142.472157, -242.479813) " x="131.924093" y="241.795809" width="21.0961293" height="1.36800839"></rect>
                <path d="M345.527996,231.847998 C345.599996,231.919998 345.671996,231.919998 345.743996,231.991998 C345.743996,231.991998 349.919996,224.935998 355.607996,231.991998 C355.607996,231.991998 361.223996,224.935998 366.839996,231.991998 C366.839996,231.991998 366.911996,231.919998 367.055996,231.847998 C371.231996,229.039998 376.847996,232.639998 376.055996,237.607997 L374.255996,249.991997 C373.895996,252.511997 371.807996,254.599997 369.287996,254.887997 C367.919996,255.031997 366.407996,254.599997 365.399996,253.015997 C365.399996,253.015997 359.783996,258.631997 355.535996,253.015997 C355.535996,253.015997 351.359996,257.191997 347.111996,253.015997 C347.111996,253.015997 346.247996,253.447997 344.951996,253.807997 C341.855996,254.671997 338.615996,252.511997 338.183996,249.271997 L336.455996,237.319997 C335.663996,232.351998 341.423996,228.823998 345.527996,231.847998 Z" id="Path" fill="#F6C8B9"></path>
                <rect id="Rectangle" fill="#2F221C" transform="translate(347.154013, 241.766208) rotate(-3.813985) translate(-347.154013, -241.766208) " x="346.470003" y="231.218052" width="1.36802019" height="21.0963113"></rect>
                <rect id="Rectangle" fill="#2F221C" x="354.815996" y="231.991998" width="1.36799998" height="21.0959998"></rect>
                <rect id="Rectangle" fill="#2F221C" transform="translate(366.091336, 242.464779) rotate(-86.193438) translate(-366.091336, -242.464779) " x="355.543271" y="241.780775" width="21.0961293" height="1.36800839"></rect>
                <path d="M58.8239993,214.135998 C57.5999993,214.135998 56.3759993,213.775998 55.3679994,213.055998 C53.6399994,211.831998 52.6319994,209.887998 52.7039994,207.799998 C52.7759994,206.287998 51.9839994,204.847998 50.7599994,203.983998 C49.4639994,203.119998 47.8799994,202.975998 46.4399995,203.623998 C44.5679995,204.487998 42.4079995,204.343998 40.6799995,203.263998 C38.9519995,202.183998 37.7999996,200.311998 37.7279996,198.295998 C37.6559996,196.351998 36.6479996,194.623998 34.9919996,193.615998 C33.3359996,192.607998 31.3919996,192.463998 29.5919997,193.255998 C27.9359997,193.975998 26.0639997,193.903998 24.4799997,192.967998 C22.8959997,192.031998 21.9599997,190.447998 21.8159997,188.647998 L22.8239997,188.575998 C22.8959997,190.087998 23.6879997,191.311998 24.9839997,192.103998 C26.2799997,192.895998 27.7919997,192.967998 29.0879997,192.319998 C31.1759996,191.383998 33.4799996,191.527998 35.4239996,192.751998 C37.3679996,193.903998 38.5199996,195.991998 38.6639996,198.223998 C38.7359996,199.951998 39.6719995,201.463998 41.1119995,202.399998 C42.5519995,203.263998 44.3519995,203.407998 45.9359995,202.687998 C47.6639994,201.895998 49.6079994,202.039998 51.1919994,203.119998 C52.7759994,204.199998 53.7119994,205.927998 53.6399994,207.799998 C53.5679994,209.527998 54.4319994,211.183998 55.8719994,212.191998 C57.3119993,213.199998 59.1839993,213.343998 60.7679993,212.695998 L61.1999993,213.631998 C60.4079993,213.991998 59.6159993,214.135998 58.8239993,214.135998 Z" id="Path" stroke="#161C51" stroke-width="2"></path>
                <path d="M364.463996,177.991998 C363.815996,177.991998 363.239996,177.919998 362.591996,177.703998 L362.951996,176.767998 C364.319996,177.271998 365.831996,177.055998 367.055996,176.191998 C368.279996,175.327998 368.927996,173.959998 368.927996,172.519998 C368.855996,170.287998 369.935996,168.127998 371.807996,166.831998 C373.679996,165.535998 375.983996,165.247998 378.143996,166.039998 C379.727996,166.687998 381.527996,166.399998 382.967996,165.463998 C384.335996,164.455998 385.199996,162.871998 385.127996,161.143998 C385.055996,159.271998 385.991996,157.471998 387.575996,156.463998 C389.159995,155.455998 391.175995,155.311998 392.831995,156.103998 C394.415995,156.823998 396.287995,156.751998 397.727995,155.815998 C399.239995,154.879998 400.103995,153.295998 400.103995,151.495998 L401.111995,151.495998 C401.111995,153.583998 400.031995,155.527998 398.231995,156.679998 C396.431995,157.831998 394.271995,157.975998 392.327995,157.039998 C390.959995,156.391998 389.303995,156.463998 388.007996,157.327998 C386.711996,158.191998 385.991996,159.559998 385.991996,161.143998 C386.063996,163.231998 385.055996,165.103998 383.399996,166.327998 C381.743996,167.479998 379.583996,167.767998 377.639996,167.047998 C375.839996,166.327998 373.895996,166.615998 372.311996,167.695998 C370.727996,168.775998 369.863996,170.575998 369.863996,172.519998 C369.863996,174.319998 369.071996,175.975998 367.559996,177.055998 C366.695996,177.631998 365.615996,177.991998 364.463996,177.991998 Z" id="Path" stroke="#161C51" stroke-width="2"></path>
                <path d="M448.487995,239.335997 C447.983995,239.335997 447.479995,239.263997 446.975995,239.047997 L447.335995,238.111997 C448.415995,238.471997 449.567995,238.327997 450.503995,237.679997 C451.439995,237.031997 451.943995,235.951997 451.943995,234.799997 C451.943995,232.999997 452.807995,231.271998 454.247995,230.191998 C455.759995,229.111998 457.631995,228.895998 459.359995,229.543998 C460.583995,230.047998 461.951995,229.831998 463.031995,229.111998 C464.111995,228.319998 464.759995,227.095998 464.687995,225.799998 C464.615995,224.287998 465.407995,222.847998 466.703995,221.983998 C467.999995,221.119998 469.583995,221.047998 471.023995,221.695998 C472.247995,222.271998 473.687995,222.199998 474.839994,221.479998 C475.991994,220.759998 476.639994,219.535998 476.711994,218.167998 L477.719994,218.167998 C477.719994,219.895998 476.855994,221.407998 475.415994,222.343998 C473.975995,223.279998 472.175995,223.351998 470.663995,222.631998 C469.583995,222.127998 468.359995,222.199998 467.351995,222.847998 C466.343995,223.495998 465.767995,224.575998 465.839995,225.799998 C465.911995,227.455998 465.119995,229.039998 463.751995,229.975998 C462.383995,230.911998 460.655995,231.127998 459.071995,230.551998 C457.631995,230.047998 456.119995,230.191998 454.895995,231.055998 C453.671995,231.919998 452.951995,233.287997 453.023995,234.799997 C453.023995,236.239997 452.375995,237.607997 451.151995,238.471997 C450.287995,239.047997 449.423995,239.335997 448.487995,239.335997 Z" id="Path" stroke="#161C51" stroke-width="2" stroke-linejoin="round"></path>
                <path d="M97.7759989,185.119998 C89.639999,185.119998 83.015999,178.495998 83.015999,170.359998 C83.015999,162.223998 89.639999,155.599998 97.7759989,155.599998 C105.911999,155.599998 112.535999,162.223998 112.535999,170.359998 C112.535999,178.495998 105.911999,185.119998 97.7759989,185.119998 Z" id="Path" stroke="#161C51" stroke-width="3"></path>
                <path d="M451.079995,317.815997 C447.047995,317.815997 443.663995,314.503997 443.663995,310.399997 C443.663995,306.367997 446.975995,302.983997 451.079995,302.983997 C455.183995,302.983997 458.495995,306.295997 458.495995,310.399997 C458.495995,314.503997 455.183995,317.815997 451.079995,317.815997 Z" id="Path" stroke="#161C51" stroke-width="2"></path>
                <g id="Group" transform="translate(112.103999, 286.999997)" fill="#FFFFFF">
                    <path d="M14.9759998,1.29599998 L26.1359997,1.29599998 L26.1359997,32.6159996 C26.1359997,46.7279995 19.3679998,51.6959994 8.4959999,51.6959994 C5.90399993,51.6959994 2.51999997,51.2639994 0.359999996,50.5439994 L1.58399998,41.4719995 C3.09599996,41.9759995 5.11199994,42.3359995 7.34399991,42.3359995 C12.0239999,42.3359995 14.9759998,40.1759995 14.9759998,32.4719996 L14.9759998,1.29599998 L14.9759998,1.29599998 Z" id="Path"></path>
                    <path d="M80.8559991,25.5599997 C80.8559991,41.8319995 70.9919992,51.6959994 56.5199993,51.6959994 C41.8319995,51.6959994 33.1919996,40.6079995 33.1919996,26.4959997 C33.1919996,11.6639999 42.6959995,0.503999994 57.3119993,0.503999994 C72.5759992,0.503999994 80.8559991,11.8799999 80.8559991,25.5599997 Z M45.0719995,26.2079997 C45.0719995,35.9279996 49.6079994,42.7679995 57.1679993,42.7679995 C64.7279992,42.7679995 69.1199992,35.5679996 69.1199992,25.9199997 C69.1199992,16.9919998 64.8719992,9.35999989 57.0959993,9.35999989 C49.4639994,9.35999989 45.0719995,16.6319998 45.0719995,26.2079997 Z" id="Shape"></path>
                    <polygon id="Path" points="99.5039988 1.29599998 99.5039988 50.9039994 88.271999 50.9039994 88.271999 1.29599998"></polygon>
                    <path d="M109.223999,50.9039994 L109.223999,1.29599998 L122.327999,1.29599998 L132.623998,19.4399998 C135.575998,24.6959997 138.527998,30.8159996 140.687998,36.4319996 L140.903998,36.4319996 C140.183998,29.8799997 139.967998,23.1839997 139.967998,15.7679998 L139.967998,1.29599998 L150.263998,1.29599998 L150.263998,50.9039994 L138.527998,50.9039994 L127.943999,31.7519996 C124.991999,26.4239997 121.751999,20.0879998 119.303999,14.2559998 L119.087999,14.3279998 C119.375999,20.8799998 119.519999,27.8639997 119.519999,35.9279996 L119.519999,50.8319994 L109.223999,50.9039994 L109.223999,50.9039994 Z" id="Path"></path>
                    <path d="M186.047998,1.29599998 L186.047998,29.8079997 C186.047998,38.3759996 189.287998,42.6959995 195.047998,42.6959995 C200.951998,42.6959995 204.191998,38.5919996 204.191998,29.8079997 L204.191998,1.29599998 L215.279998,1.29599998 L215.279998,29.0879997 C215.279998,44.4239995 207.575998,51.6959994 194.615998,51.6959994 C182.087998,51.6959994 174.743998,44.7839995 174.743998,28.9439997 L174.743998,1.29599998 L186.047998,1.29599998 L186.047998,1.29599998 Z" id="Path"></path>
                    <path d="M225.359997,39.3119995 C228.383997,40.8239995 232.991997,42.4079995 237.815997,42.4079995 C242.999997,42.4079995 245.663997,40.2479995 245.663997,37.0079996 C245.663997,33.9119996 243.287997,32.1839996 237.383997,30.0239997 C229.175997,27.1439997 223.775997,22.6079997 223.775997,15.4079998 C223.775997,6.91199992 230.831997,0.503999994 242.567997,0.503999994 C248.183997,0.503999994 252.287997,1.65599998 255.239997,3.02399996 L252.719997,12.0959999 C250.703997,11.1599999 247.175997,9.71999989 242.351997,9.71999989 C237.527997,9.71999989 235.151997,11.9519999 235.151997,14.4719998 C235.151997,17.6399998 237.959997,19.0079998 244.367997,21.4559998 C253.151997,24.6959997 257.255997,29.2319997 257.255997,36.2159996 C257.255997,44.4959995 250.847997,51.6239994 237.239997,51.6239994 C231.551997,51.6239994 226.007997,50.1839994 223.199997,48.5999994 L225.359997,39.3119995 Z" id="Path"></path>
                </g>
                <path d="M23.5439997,298.231997 L0,298.231997 L11.8079999,280.375997 L23.5439997,298.231997 Z M1.43999998,297.511997 L22.1039997,297.511997 L11.7359999,281.815997 L1.43999998,297.511997 Z" id="Shape" stroke="#161C51" stroke-width="2"></path>
            </g>
        </g>
    </g>
</svg>