<?xml version="1.0" encoding="UTF-8"?>
<svg width="611px" height="674px" viewBox="0 0 611 674" version="1.1" xmlns="http://www.w3.org/2000/svg" xmlns:xlink="http://www.w3.org/1999/xlink">
    <title>4E41C57A-AE1C-4455-830F-46D7DE39D1A4</title>
    <g id="Design" stroke="none" stroke-width="1" fill="none" fill-rule="evenodd">
        <g id="001-Homepage" transform="translate(-121.000000, -3785.000000)">
            <g id="Group-11" transform="translate(121.000000, 3785.000000)">
                <g id="Group" transform="translate(147.199820, 0.000000)">
                    <rect id="Rectangle" fill="#85ACC6" fill-rule="nonzero" x="0.24230423" y="76.6892889" width="416.39982" height="260.961656"></rect>
                    <rect id="Rectangle" fill="#578393" fill-rule="nonzero" x="0.24230423" y="73.660486" width="416.39982" height="34.710081"></rect>
                    <g transform="translate(33.922592, 137.507651)">
                        <rect id="Rectangle" fill="#A4C9E8" fill-rule="nonzero" x="0.121152115" y="0.181728173" width="133.025023" height="83.5949595"></rect>
                        <path d="M26.3505851,21.5045005 L18.4756976,21.5045005 L14.5382538,14.719982 L18.4756976,7.93546355 L26.3505851,7.93546355 L30.2880288,14.719982 L26.3505851,21.5045005 Z M18.8391539,20.8987399 L25.9871287,20.8987399 L29.5611161,14.719982 L25.9871287,8.48064806 L18.8391539,8.48064806 L15.2651665,14.719982 L18.8391539,20.8987399 Z" id="Shape" fill="#487E96" fill-rule="nonzero"></path>
                        <path d="M46.3406841,52.8223222 L33.5591359,52.8223222 L27.1380738,41.7369037 L33.5591359,30.6514851 L46.3406841,30.6514851 L52.7617462,41.7369037 L46.3406841,52.8223222 Z M33.8620162,52.2165617 L45.9772277,52.2165617 L52.0348335,41.6763276 L45.9772277,31.1360936 L33.8620162,31.1360936 L27.8044104,41.6763276 L33.8620162,52.2165617 Z" id="Shape" fill="#487E96" fill-rule="nonzero"></path>
                        <path d="M104.069667,68.8749775 L92.6207921,68.8749775 L86.8660666,58.9405041 L92.6207921,49.0060306 L104.069667,49.0060306 L109.824392,58.9405041 L104.069667,68.8749775 Z M92.9236724,68.2692169 L103.706211,68.2692169 L109.09748,58.9405041 L103.706211,49.6117912 L92.9236724,49.6117912 L87.5324032,58.9405041 L92.9236724,68.2692169 Z" id="Shape" fill="#487E96" fill-rule="nonzero"></path>
                        <path d="M59.6068407,77.2344734 L41.0705671,77.2344734 L31.8024302,61.1818182 L41.0705671,45.1291629 L59.6068407,45.1291629 L68.8749775,61.1818182 L59.6068407,77.2344734 Z M41.4340234,76.6287129 L59.3039604,76.6287129 L68.2086409,61.1818182 L59.2433843,45.7349235 L41.4340234,45.7349235 L32.5293429,61.1818182 L41.4340234,76.6287129 Z" id="Shape" fill="#487E96" fill-rule="nonzero"></path>
                        <rect id="Rectangle" fill="#487E96" fill-rule="nonzero" transform="translate(77.882453, 60.158467) rotate(-7.128570) translate(-77.882453, -60.158467) " x="68.4625925" y="59.8555781" width="18.83972" height="1"></rect>
                        <rect id="Rectangle" fill="#487E96" fill-rule="nonzero" transform="translate(29.895884, 26.081237) rotate(-38.230279) translate(-29.895884, -26.081237) " x="29.5930149" y="19.9330014" width="1" height="12.2964705"></rect>
                        <circle id="Oval" fill="#487E96" fill-rule="nonzero" cx="59.4856886" cy="45.4926193" r="2.60477048"></circle>
                        <circle id="Oval" fill="#487E96" fill-rule="nonzero" cx="41.3128713" cy="45.4926193" r="2.60477048"></circle>
                        <circle id="Oval" fill="#487E96" fill-rule="nonzero" cx="46.1589559" cy="52.3982898" r="1.87785779"></circle>
                        <circle id="Oval" fill="#487E96" fill-rule="nonzero" cx="52.2771377" cy="41.8580558" r="1.87785779"></circle>
                        <circle id="Oval" fill="#487E96" fill-rule="nonzero" cx="46.1589559" cy="31.0149415" r="1.87785779"></circle>
                        <circle id="Oval" fill="#487E96" fill-rule="nonzero" cx="33.8620162" cy="31.0149415" r="1.87785779"></circle>
                        <circle id="Oval" fill="#487E96" fill-rule="nonzero" cx="18.6574257" cy="21.3833483" r="1.87785779"></circle>
                        <circle id="Oval" fill="#487E96" fill-rule="nonzero" cx="27.4409541" cy="41.8580558" r="1.87785779"></circle>
                        <circle id="Oval" fill="#487E96" fill-rule="nonzero" cx="33.8620162" cy="52.3982898" r="1.87785779"></circle>
                        <circle id="Oval" fill="#487E96" fill-rule="nonzero" cx="32.2870387" cy="61.3029703" r="2.60477048"></circle>
                        <circle id="Oval" fill="#487E96" fill-rule="nonzero" cx="41.3128713" cy="76.749865" r="2.60477048"></circle>
                        <circle id="Oval" fill="#487E96" fill-rule="nonzero" cx="59.4856886" cy="76.749865" r="2.60477048"></circle>
                        <circle id="Oval" fill="#487E96" fill-rule="nonzero" cx="68.5115212" cy="61.3029703" r="2.60477048"></circle>
                        <circle id="Oval" fill="#487E96" fill-rule="nonzero" cx="92.8025203" cy="49.3089109" r="2.60477048"></circle>
                        <rect id="Rectangle" fill="#487E96" fill-rule="nonzero" transform="translate(15.053093, 25.918535) rotate(-53.122081) translate(-15.053093, -25.918535) " x="9.20762006" y="25.6156612" width="11.6909454" height="1"></rect>
                        <line x1="72.9941494" y1="15.9315032" x2="109.339784" y2="15.9315032" id="Path"></line>
                        <rect id="Rectangle" fill="#487E96" fill-rule="nonzero" x="72.9941494" y="15.0228623" width="36.3456346" height="1.81728173"></rect>
                        <line x1="72.9941494" y1="22.8977498" x2="109.339784" y2="22.8977498" id="Path"></line>
                        <rect id="Rectangle" fill="#487E96" fill-rule="nonzero" x="72.9941494" y="21.9891089" width="36.3456346" height="1.81728173"></rect>
                        <line x1="72.9941494" y1="30.1668767" x2="109.339784" y2="30.1668767" id="Path"></line>
                        <rect id="Rectangle" fill="#487E96" fill-rule="nonzero" x="72.9941494" y="29.2582358" width="36.3456346" height="1.81728173"></rect>
                    </g>
                    <polygon id="Path" fill="#1C1E4E" fill-rule="nonzero" points="198.083708 244.969577 259.144374 242.728263 271.320162 294.157336 278.649865 337.893249 235.70144 337.893249 228.674617 319.659856 225.10063 337.832673 180.880108 337.772097 187.664626 245.938794"></polygon>
                    <path d="M324.929973,106.129253 L316.085869,129.148155 L315.116652,140.415302 L314.329163,149.744014 L299.306301,146.715212 C299.669757,145.321962 300.033213,143.989289 300.39667,142.777768 C302.456256,135.084608 303.910081,129.693339 303.910081,129.693339 C300.69955,126.30108 297.731323,116.306031 297.731323,116.306031 C296.883258,112.974347 293.854455,105.826373 293.854455,105.826373 C296.822682,101.707201 303.062016,113.216652 303.062016,113.216652 L304.152385,94.0140414 C304.212961,93.1659766 304.879298,92.4390639 305.727363,92.3179118 C306.69658,92.1967597 307.605221,92.9236724 307.726373,93.9534653 L308.937894,107.280198 L312.027273,91.1669667 C312.209001,90.1977498 313.057066,89.5314131 314.026283,89.5919892 C315.177228,89.6525653 316.025293,90.6217822 315.90414,91.7121512 L314.510891,108.431143 L318.932943,96.9216922 C319.356976,95.8313231 320.568497,95.2861386 321.658866,95.7707471 C322.628083,96.1947795 323.173267,97.2851485 322.809811,98.3149415 L318.690639,110.490729 L322.325203,104.857156 C322.809811,104.130243 323.718452,103.948515 324.445365,104.372547 C324.929973,104.675428 325.172277,105.462916 324.929973,106.129253 Z" id="Path" fill="#FEAF83" fill-rule="nonzero"></path>
                    <polygon id="Path" fill="#FEAF83" fill-rule="nonzero" points="238.972547 134.478848 215.287309 134.478848 216.19595 105.765797 216.49883 95.1649865 216.49883 94.9832583 224.131413 95.3467147 238.366787 96.1342034 238.427363 99.1024302"></polygon>
                    <path d="M238.427363,99.1024302 C235.519712,103.463906 227.281368,109.884968 216.135374,105.765797 L216.438254,95.1649865 L224.070837,95.3467147 L238.366787,96.0736274 L238.427363,99.1024302 Z" id="Path" fill="#0C0F0C" fill-rule="nonzero"></path>
                    <path d="M249.452205,67.7846085 L249.452205,57.0020702 L228.553465,47.370477 L228.553465,47.0675968 L228.250585,47.1887489 L227.947705,47.0675968 L227.947705,47.370477 L207.594149,57.0020702 L207.594149,67.7846085 C207.594149,67.7846085 197.417372,70.6922592 209.411431,79.89982 C209.411431,79.89982 210.5018,100.253375 227.947705,101.707201 L227.947705,101.767777 C228.068857,101.767777 228.129433,101.767777 228.250585,101.767777 C228.371737,101.767777 228.432313,101.767777 228.553465,101.767777 L228.553465,101.707201 C246.059946,100.253375 247.634923,79.89982 247.634923,79.89982 C259.689559,70.6922592 249.452205,67.7846085 249.452205,67.7846085 Z" id="Path" fill="#FEAF83" fill-rule="nonzero"></path>
                    <path d="M315.116652,140.415302 L314.329163,149.744014 L299.306301,146.715212 C299.669757,145.321962 300.033213,143.989289 300.39667,142.777768 C304.273537,142.172007 311.239784,141.081638 315.116652,140.415302 Z" id="Path" fill="#0C0F0C" fill-rule="nonzero"></path>
                    <polygon id="Path" fill="#3578C4" fill-rule="nonzero" points="208.442214 119.819442 220.012241 119.819442 227.765977 126.058776 233.70243 119.819442 245.878218 122.969397 229.159226 199.961566 215.287309 154.347795"></polygon>
                    <path d="M211.531593,49.8540954 C211.531593,49.8540954 199.90099,51.7319532 207.594149,67.7846085 L208.260486,73.4181818 L210.622952,75.7806481 C210.622952,75.7806481 208.078758,56.759766 214.257516,53.8521152 C214.257516,53.8521152 236.549505,51.3684968 243.879208,55.9722772 C243.879208,55.9722772 246.726283,59.0616562 246.968587,72.8729973 L248.785869,71.3585959 C248.785869,71.3585959 251.572367,56.5174617 247.634923,49.8540954 C247.634923,49.8540954 226.675608,23.140054 211.713321,40.9494149 C210.259496,42.7061206 209.593159,46.280108 211.531593,49.8540954 Z" id="Path" fill="#080A08" fill-rule="nonzero"></path>
                    <path d="M317.90315,147.866157 C317.29739,188.149235 311.542664,206.927813 311.542664,206.927813 C305.787939,217.528623 295.490009,214.075788 295.490009,214.075788 C287.312241,210.925833 274.591269,179.668587 274.591269,179.668587 L274.530693,179.910891 L271.259586,200.870207 L278.649865,273.379748 L282.163276,307.484068 C269.745185,322.628083 239.154275,325.172277 239.154275,325.172277 L227.644824,256.60018 L216.438254,325.051125 C196.448155,326.262646 174.580198,315.056076 174.580198,315.056076 L181.788749,221.344914 L156.346805,213.288299 C151.016112,211.592169 148.169037,205.776868 150.168047,200.567327 L178.275338,126.785689 L208.50279,110.854185 L210.320072,109.884968 L216.256526,106.735014 L227.584248,187.906931 L228.008281,190.935734 L228.553465,194.933753 L229.40153,187.906931 L229.886139,183.969487 L238.851395,106.79559 L246.181098,110.551305 L247.877228,111.459946 L277.922952,126.846265 L295.187129,165.614941 L299.427453,142.59604 L317.90315,147.866157 Z" id="Path" fill="#F5F5F5" fill-rule="nonzero"></path>
                    <ellipse id="Oval" fill="#0C0F0C" fill-rule="nonzero" cx="218.618992" cy="68.329793" rx="1.09036904" ry="1.63555356"></ellipse>
                    <ellipse id="Oval" fill="#0C0F0C" fill-rule="nonzero" cx="237.458146" cy="68.329793" rx="1.09036904" ry="1.63555356"></ellipse>
                    <path d="M216.438254,107.219622 C216.438254,107.219622 210.138344,121.212691 218.013231,129.087579 L222.677588,123.211701 L227.826553,128.360666 L232.188029,123.029973 L238.972547,129.027003 C238.972547,129.027003 246.059946,113.822412 238.790819,106.553285 L228.008281,124.362646 C228.008281,124.362646 219.830513,116.306031 216.438254,107.219622 Z" id="Path" fill="#243942" fill-rule="nonzero"></path>
                    <polygon id="Path" fill="#0C0F0C" fill-rule="nonzero" points="227.826553 81.6565257 223.10162 80.2027003 225.948695 69.8441944 226.79676 70.0864986 224.252565 79.5969397 228.129433 80.8084608"></polygon>
                    <path d="M221.284338,87.4718272 L234.368767,87.4718272 C234.368767,87.4718272 228.674617,96.4370837 221.284338,87.4718272 Z" id="Path" fill="#F5F5F5" fill-rule="nonzero"></path>
                    <polygon id="Path" fill="#0C0F0C" fill-rule="nonzero" points="247.150315 129.148155 253.813681 133.751935 229.40153 187.785779 228.008281 190.814581 227.826553 191.238614 201.718272 134.781728 206.50378 129.148155 201.718272 124.483798 208.50279 110.793609 210.380648 109.824392 203.172097 124.241494 208.139334 129.087579 203.172097 134.963456 227.584248 187.846355 227.826553 188.330963 229.825563 183.848335 252.29928 134.175968 245.030153 129.148155 252.29928 124.180918 246.120522 110.430153 247.877228 111.278218 253.813681 124.60495"></polygon>
                    <path d="M208.19991,165.554365 L255.812691,181.667597 C258.417462,182.576238 259.810711,185.362736 258.90207,187.967507 L236.912961,252.844464 C236.00432,255.449235 233.217822,256.842484 230.613051,255.933843 L184.272367,240.244644 C181.728173,239.39658 180.334923,236.610081 181.122412,234.005311 L201.839424,168.70432 C202.687489,166.09955 205.534563,164.645725 208.19991,165.554365 Z" id="Path" fill="#1B3E4E" fill-rule="nonzero"></path>
                    <path d="M249.209901,216.619982 L242.485959,214.560396 L248.543564,218.618992 L252.359856,221.587219 C252.359856,221.587219 253.026193,225.040054 249.331053,223.646805 C249.331053,223.646805 248.422412,227.160216 244.121512,226.069847 C244.121512,226.069847 244.060936,228.856346 241.032133,228.614041 C241.032133,228.614041 231.824572,228.856346 223.283348,224.313141 L222.677588,224.191989 L217.589199,223.4045 L220.920882,210.017192 L221.344914,210.138344 L226.251575,211.228713 C226.251575,211.228713 237.034113,208.442214 241.577318,208.805671 L251.451215,213.106571 L257.327093,219.406481 C257.205941,219.406481 253.207921,220.133393 249.209901,216.619982 Z" id="Path" fill="#FEAF83" fill-rule="nonzero"></path>
                    <polygon id="Path" fill="#0C0F0C" fill-rule="nonzero" points="191.056886 165.554365 180.880108 199.961566 215.287309 208.078758 186.99829 194.327993"></polygon>
                    <polygon id="Path" fill="#F5F5F5" fill-rule="nonzero" points="173.429253 218.679568 215.832493 230.855356 220.920882 210.017192 178.033033 194.933753"></polygon>
                    <polygon id="Path" fill="#0C0F0C" fill-rule="nonzero" points="222.677588 224.191989 217.528623 223.4045 220.860306 210.017192 221.284338 210.138344"></polygon>
                    <rect id="Rectangle" fill="#0C0F0C" fill-rule="nonzero" transform="translate(245.295343, 221.186048) rotate(-59.044104) translate(-245.295343, -221.186048) " x="244.99245" y="216.400336" width="1" height="9.57142444"></rect>
                    <rect id="Rectangle" fill="#0C0F0C" fill-rule="nonzero" transform="translate(241.359008, 224.107716) rotate(-51.798362) translate(-241.359008, -224.107716) " x="241.056143" y="220.745912" width="1" height="6.72360686"></rect>
                    <rect id="Rectangle" fill="#0C0F0C" fill-rule="nonzero" transform="translate(238.674589, 226.770848) rotate(-56.667480) translate(-238.674589, -226.770848) " x="238.371707" y="223.408859" width="1" height="6.72397769"></rect>
                    <rect id="Rectangle" fill="#0C0F0C" fill-rule="nonzero" transform="translate(308.129482, 100.577982) rotate(-5.225323) translate(-308.129482, -100.577982) " x="307.826615" y="93.8846245" width="1" height="13.3867139"></rect>
                    <rect id="Rectangle" fill="#0C0F0C" fill-rule="nonzero" transform="translate(315.104284, 100.196615) rotate(-85.235496) translate(-315.104284, -100.196615) " x="306.714874" y="99.8937487" width="16.7788185" height="1"></rect>
                    <rect id="Rectangle" fill="#0C0F0C" fill-rule="nonzero" transform="translate(320.570169, 104.357403) rotate(-71.372991) translate(-320.570169, -104.357403) " x="314.149228" y="104.054529" width="12.841881" height="1"></rect>
                    <rect id="Rectangle" fill="#0C0F0C" fill-rule="nonzero" transform="translate(320.503414, 117.634415) rotate(-68.998688) translate(-320.503414, -117.634415) " x="308.14553" y="117.331526" width="24.715767" height="1"></rect>
                    <path d="M270.532673,275.19703 C250.663726,274.288389 244.727273,258.841494 244.666697,258.659766 L245.817642,258.235734 C245.878218,258.356886 251.572367,273.076868 270.593249,273.985509 L270.532673,275.19703 Z" id="Path" fill="#0C0F0C" fill-rule="nonzero"></path>
                    <path d="M192.328983,279.437354 L192.086679,278.225833 C206.624932,275.075878 210.380648,260.053015 210.441224,259.871287 L211.592169,260.174167 C211.592169,260.355896 207.654725,276.166247 192.328983,279.437354 Z" id="Path" fill="#0C0F0C" fill-rule="nonzero"></path>
                    <polygon id="Path" fill="#0C0F0C" fill-rule="nonzero" points="278.649865 273.379748 265.807741 199.961566 270.532673 169.067777 274.530693 179.910891 271.259586 200.870207"></polygon>
                    <path d="M19.6266427,97.2851485 C16.2949595,97.2851485 13.5690369,94.619802 13.5690369,91.2275428 C13.5690369,87.8352835 16.2343834,85.169937 19.6266427,85.169937 C23.0189019,85.169937 25.6842484,87.8352835 25.6842484,91.2275428 C25.6842484,94.619802 22.9583258,97.2851485 19.6266427,97.2851485 Z M19.6266427,86.7449145 C17.1430243,86.7449145 15.1440144,88.7439244 15.1440144,91.2275428 C15.1440144,93.7111611 17.1430243,95.710171 19.6266427,95.710171 C22.110261,95.710171 24.1092709,93.7111611 24.1092709,91.2275428 C24.1092709,88.7439244 22.110261,86.7449145 19.6266427,86.7449145 Z" id="Shape" fill="#F5F5F5" fill-rule="nonzero"></path>
                    <path d="M40.3436544,97.2851485 C37.0119712,97.2851485 34.2860486,94.619802 34.2860486,91.2275428 C34.2860486,87.8352835 36.9513951,85.169937 40.3436544,85.169937 C43.7359136,85.169937 46.4012601,87.8352835 46.4012601,91.2275428 C46.4012601,94.619802 43.6147615,97.2851485 40.3436544,97.2851485 Z M40.3436544,86.7449145 C37.860036,86.7449145 35.8610261,88.7439244 35.8610261,91.2275428 C35.8610261,93.7111611 37.860036,95.710171 40.3436544,95.710171 C42.8272727,95.710171 44.8262826,93.7111611 44.8262826,91.2275428 C44.8262826,88.7439244 42.7666967,86.7449145 40.3436544,86.7449145 Z" id="Shape" fill="#F5F5F5" fill-rule="nonzero"></path>
                    <path d="M59.8491449,97.2851485 C56.5174617,97.2851485 53.7915392,94.619802 53.7915392,91.2275428 C53.7915392,87.8352835 56.4568857,85.169937 59.8491449,85.169937 C63.2414041,85.169937 65.9067507,87.8352835 65.9067507,91.2275428 C65.9067507,94.619802 63.1808281,97.2851485 59.8491449,97.2851485 Z M59.8491449,86.7449145 C57.3655266,86.7449145 55.3665167,88.7439244 55.3665167,91.2275428 C55.3665167,93.7111611 57.3655266,95.710171 59.8491449,95.710171 C62.3327633,95.710171 64.3317732,93.7111611 64.3317732,91.2275428 C64.3317732,88.7439244 62.3327633,86.7449145 59.8491449,86.7449145 Z" id="Shape" fill="#F5F5F5" fill-rule="nonzero"></path>
                    <g transform="translate(238.063906, 105.402340)" fill-rule="nonzero" id="Path">
                        <path d="M35.1946895,58.6981998 L37.3148515,56.5780378 C38.4657966,55.4270927 38.950405,53.7915392 38.6475248,52.2165617 L35.0129613,32.4687669 L33.7408641,32.7110711 L37.3754275,52.4588659 C37.6177318,53.609811 37.1936994,54.8213321 36.4062106,55.6693969 L34.2860486,57.789559 L35.1946895,58.6981998 Z" fill="#535786"></path>
                        <path d="M36.6485149,56.2751575 L36.6485149,56.2751575 C35.9821782,55.5482448 34.8312331,55.4876688 34.1043204,56.1540054 L31.9235824,58.1530153 C31.1966697,58.8193519 31.1360936,59.970297 31.8024302,60.6972097 L31.8024302,60.6972097 C32.4687669,61.4241224 33.619712,61.4846985 34.3466247,60.8183618 L36.5273627,58.8193519 C37.2542754,58.1530153 37.3148515,57.0020702 36.6485149,56.2751575 Z" fill="#243942"></path>
                        <path d="M24.7756076,60.5760576 L22.049685,59.3645365 C20.5958596,58.6981998 19.5054905,57.3655266 19.2026103,55.7905491 L15.2651665,35.80045 L16.5372637,35.5581458 L20.4747075,55.5482448 C20.7170117,56.6991899 21.5045005,57.6684068 22.5342934,58.1530153 L25.260216,59.3645365 L24.7756076,60.5760576 Z" fill="#535786"></path>
                        <path d="M15.6891989,37.0725473 L15.6891989,37.0725473 C16.3555356,37.0725473 16.9007201,36.5273627 16.9612961,35.8610261 C17.5064806,28.5313231 23.3217822,27.7438344 23.6246625,27.6832583 C30.0457246,26.8957696 32.650495,31.49955 33.5591359,33.619712 C33.8014401,34.2254725 34.4072007,34.5283528 35.0129613,34.4072007 L35.0129613,34.4072007 C35.739874,34.2254725 36.1639064,33.4379838 35.9216022,32.7110711 C34.5283528,29.1370837 30.6514851,24.2909991 23.3217822,25.1390639 C23.2612061,25.1390639 15.1440144,26.1688569 14.4171017,35.6792979 C14.3565257,36.4667867 14.9622862,37.0725473 15.6891989,37.0725473 Z" fill="#243942"></path>
                        <path d="M28.410171,61.3635464 L28.410171,61.3635464 C28.0467147,62.2721872 26.9563456,62.6962196 26.0477048,62.3327633 L23.2612061,61.1818182 C22.3525653,60.8183618 21.9285329,59.7279928 22.2919892,58.8193519 L22.2919892,58.8193519 C22.6554455,57.9107111 23.7458146,57.4866787 24.6544554,57.850135 L27.4409541,59.0010801 C28.349595,59.3645365 28.7736274,60.4549055 28.410171,61.3635464 Z" fill="#243942"></path>
                        <path d="M22.4131413,27.0169217 L23.6246625,26.7746175 C23.5640864,26.5323132 19.0208821,5.45184518 0.787488749,0.363456346 L0.484608461,1.51440144 C17.9305131,6.42106211 22.3525653,26.8351935 22.4131413,27.0169217 Z" fill="#243942"></path>
                    </g>
                    <path d="M193.964536,153.49973 C192.934743,132.358686 198.931773,120.606931 204.20189,114.488749 C209.956616,107.764806 215.893069,106.189829 216.135374,106.129253 L216.438254,107.280198 C216.377678,107.280198 210.562376,108.915752 205.110531,115.336814 C200.022142,121.333843 194.206841,132.782718 195.236634,153.439154 L193.964536,153.49973 Z" id="Path" fill="#243942" fill-rule="nonzero"></path>
                    <circle id="Oval" fill="#535786" fill-rule="nonzero" cx="194.752025" cy="156.831413" r="4.78550855"></circle>
                    <line x1="416.642124" y1="336.681728" x2="416.642124" y2="338.49901" id="Path" fill="#0C0F0C" fill-rule="nonzero"></line>
                    <g transform="translate(315.601260, 231.400540)">
                        <rect id="Rectangle" fill="#AED4ED" fill-rule="nonzero" x="0.787488749" y="0.121152115" width="142.656616" height="86.6237624"></rect>
                        <circle id="Oval" fill="#EDEDF5" fill-rule="nonzero" cx="35.80045" cy="43.0090009" r="26.2294329"></circle>
                        <path d="M36.6485149,59.5462646 L28.1072907,51.9742574 L28.8947795,51.0656166 L36.6485149,57.9712871 L41.6763276,53.7915392 C50.5810081,45.8560756 52.4588659,40.2225023 52.4588659,36.8908191 C52.4588659,33.680288 50.8233123,32.1053105 50.7627363,32.0447345 C49.430063,30.7120612 47.5522052,30.1063006 45.6743474,30.3486049 C41.009991,31.0149415 37.0725473,36.8908191 37.0725473,36.9513951 L36.5879388,37.7388839 L36.1033303,36.9513951 C36.0427543,36.8908191 32.3476148,31.0755176 27.8044104,30.4091809 C25.9265527,30.1668767 24.0486949,30.8332133 22.7160216,32.1053105 C21.1410441,33.4985599 20.2324032,38.0417642 21.080468,40.5253825 L19.929523,40.8888389 C18.960306,37.9811881 19.990099,32.8927993 21.9285329,31.1966697 C23.5640864,29.6216922 25.7448245,28.8947795 27.9861386,29.1976598 C32.1053105,29.8034203 35.4369937,33.8620162 36.6485149,35.5581458 C37.9206121,33.8620162 41.3734473,29.7428443 45.6137714,29.1976598 C47.8550855,28.9553555 50.0358236,29.6822682 51.6713771,31.1966697 C51.7925293,31.2572457 53.7915392,33.1351035 53.7915392,36.8908191 C53.7915392,42.10036 50.0358236,48.0973897 42.5849685,54.7607561 L36.6485149,59.5462646 Z" id="Path" fill="#487E96" fill-rule="nonzero"></path>
                        <polygon id="Path" fill="#487E96" fill-rule="nonzero" points="38.3446445 51.2473447 34.7706571 40.5253825 32.5293429 45.7954995 28.5313231 45.7954995 28.5313231 44.5839784 31.7418542 44.5839784 34.8918092 37.1331233 38.5869487 48.0973897 40.8282628 43.6753375 47.5522052 43.6753375 47.5522052 44.8868587 41.5551755 44.8868587"></polygon>
                        <path d="M23.7458146,50.0963996 C21.9285329,50.0963996 20.4141314,48.6425743 20.4141314,46.7647165 C20.4141314,44.8868587 21.8679568,43.4330333 23.7458146,43.4330333 C25.5630963,43.4330333 27.0774977,44.8868587 27.0774977,46.7647165 L27.0774977,46.7647165 C27.0774977,48.5819982 25.5630963,50.0358236 23.7458146,50.0963996 Z M23.7458146,44.6445545 C22.5948695,44.6445545 21.6256526,45.6137714 21.6256526,46.7647165 C21.6256526,47.9156616 22.5948695,48.8848785 23.7458146,48.8848785 C24.8967597,48.8848785 25.8659766,47.9156616 25.8659766,46.7647165 L25.8659766,46.7647165 C25.8659766,45.5531953 24.8967597,44.6445545 23.7458146,44.6445545 L23.7458146,44.6445545 Z" id="Shape" fill="#487E96" fill-rule="nonzero"></path>
                        <path d="M23.7458146,52.3377138 C20.6564356,52.3377138 18.1728173,49.8540954 18.1728173,46.7647165 C18.1728173,43.6753375 20.6564356,41.1917192 23.7458146,41.1917192 C26.8351935,41.1917192 29.3188119,43.6753375 29.3188119,46.7647165 L29.3188119,46.7647165 C29.3188119,49.8540954 26.8351935,52.3377138 23.7458146,52.3377138 Z M23.7458146,42.4032403 C21.3227723,42.4032403 19.3843384,44.3416742 19.3843384,46.7647165 C19.3843384,49.1877588 21.3227723,51.1261926 23.7458146,51.1261926 C26.1688569,51.1261926 28.1072907,49.1877588 28.1072907,46.7647165 L28.1072907,46.7647165 C28.1072907,44.3416742 26.1688569,42.3426643 23.7458146,42.4032403 L23.7458146,42.4032403 Z" id="Shape" fill="#487E96" fill-rule="nonzero"></path>
                        <rect id="Rectangle" fill="#487E96" fill-rule="nonzero" x="23.0794779" y="51.7925293" width="1.21152115" height="9.02583258"></rect>
                        <rect id="Rectangle" fill="#487E96" fill-rule="nonzero" x="80.1421242" y="44.3416742" width="13.9324932" height="1.81728173"></rect>
                        <rect id="Rectangle" fill="#487E96" fill-rule="nonzero" x="80.4450045" y="54.0338434" width="13.9324932" height="1.81728173"></rect>
                        <rect id="Rectangle" fill="#487E96" fill-rule="nonzero" x="80.4450045" y="63.7260126" width="13.9324932" height="1.81728173"></rect>
                        <circle id="Oval" fill="#487E96" fill-rule="nonzero" cx="74.690279" cy="54.9424842" r="2.72592259"></circle>
                        <circle id="Oval" fill="#487E96" fill-rule="nonzero" cx="74.690279" cy="64.6346535" r="2.72592259"></circle>
                        <circle id="Oval" fill="#487E96" fill-rule="nonzero" cx="74.690279" cy="45.250315" r="2.72592259"></circle>
                        <rect id="Rectangle" fill="#487E96" fill-rule="nonzero" x="115.276238" y="44.3416742" width="13.9324932" height="1.81728173"></rect>
                        <rect id="Rectangle" fill="#487E96" fill-rule="nonzero" x="115.579118" y="54.0338434" width="13.9324932" height="1.81728173"></rect>
                        <rect id="Rectangle" fill="#487E96" fill-rule="nonzero" x="115.579118" y="63.7260126" width="13.9324932" height="1.81728173"></rect>
                        <circle id="Oval" fill="#487E96" fill-rule="nonzero" cx="109.824392" cy="54.9424842" r="2.72592259"></circle>
                        <circle id="Oval" fill="#487E96" fill-rule="nonzero" cx="109.824392" cy="64.6346535" r="2.72592259"></circle>
                        <circle id="Oval" fill="#487E96" fill-rule="nonzero" cx="109.824392" cy="45.250315" r="2.72592259"></circle>
                        <line x1="74.3873987" y1="23.7458146" x2="125.877048" y2="23.7458146" id="Path"></line>
                        <rect id="Rectangle" fill="#487E96" fill-rule="nonzero" x="74.3873987" y="22.8371737" width="51.489649" height="1.81728173"></rect>
                        <line x1="74.3873987" y1="30.7120612" x2="125.877048" y2="30.7120612" id="Path"></line>
                        <rect id="Rectangle" fill="#487E96" fill-rule="nonzero" x="74.3873987" y="29.8034203" width="51.489649" height="1.81728173"></rect>
                        <rect id="Rectangle" fill="#0C0F0C" fill-rule="nonzero" x="0.484608461" y="85.8362736" width="142.959496" height="1.81728173"></rect>
                    </g>
                    <polygon id="Path" fill="#C3DFF4" fill-rule="nonzero" points="354.006481 0.181728173 274.167237 0.181728173 274.167237 42.9484248 287.736274 42.9484248 287.736274 62.1510351 306.938884 42.9484248 354.006481 42.9484248"></polygon>
                    <polygon id="Path" fill="#0C0F0C" fill-rule="nonzero" points="286.827633 64.3923492 286.827633 43.8570657 274.167237 43.8570657 274.167237 42.039784 288.644914 42.039784 288.644914 59.970297 306.575428 42.039784 354.006481 42.039784 354.006481 43.8570657 307.362916 43.8570657"></polygon>
                    <rect id="Rectangle" fill="#0C0F0C" fill-rule="nonzero" x="34.0437444" y="220.375698" width="133.025023" height="1.81728173"></rect>
                </g>
                <g id="Group" transform="translate(60.576058, 430.090009)" fill-rule="nonzero">
                    <g id="Path">
                        <path d="M60.4549055,111.09649 C60.4549055,111.09649 71.2374437,94.8015302 74.690279,78.1431143 C76.5075608,69.5413141 89.5919892,66.6942394 93.7717372,50.7627363 C93.7717372,50.7627363 97.9514851,44.5234023 102.79757,42.4638164 C102.79757,42.4638164 128.239514,23.3217822 114.246445,9.51044104 C107.643654,2.96822682 90.6823582,-7.1479748 77.1133213,9.1469847 C74.2056706,12.59982 71.2374437,16.9007201 66.6942394,21.6256526 C60.8789379,27.6832583 59.3645365,37.5571557 59.0616562,54.2155716 C59.0010801,57.2443744 58.0318632,62.9990999 56.2751575,66.0279028 C50.5810081,75.7806481 52.4588659,85.7756976 60.4549055,111.09649 Z" fill="#0D9EC6"></path>
                        <path d="M73.9633663,109.339784 C73.9633663,109.339784 82.2622862,83.6555356 100.313951,76.749865 C103.40333,75.5383438 105.462916,71.479748 110.733033,67.0576958 C118.183888,60.6972097 137.083618,55.9722772 148.229613,63.6048605 C154.590099,67.9663366 148.89595,79.5363636 125.331863,84.4430243 C121.212691,85.2910891 116.548335,93.8928893 112.853195,95.5284428 C105.220612,98.9812781 105.765797,99.4053105 84.3824482,102.494689 C81.2930693,102.858146 78.1431143,103.827363 73.9633663,109.339784 Z" fill="#0D9EC6"></path>
                        <path d="M54.5184518,115.579118 C54.3367237,116.245455 45.4926193,109.339784 43.4330333,98.2543654 C43.4330333,98.2543654 42.039784,91.2881188 30.2274527,87.8352835 C30.2274527,87.8352835 -0.302880288,79.5363636 10.1162016,60.7577858 C10.1162016,60.7577858 15.6891989,49.6723672 33.0139514,69.0567057 L44.0993699,84.9882088 C44.159946,85.0487849 58.6981998,101.040864 54.5184518,115.579118 Z" fill="#0D9EC6"></path>
                        <path d="M42.7666967,141.990279 C42.7666967,141.990279 30.9543654,145.443114 25.4419442,139.930693 C25.4419442,139.930693 2.54419442,143.383528 0.484608461,132.964446 C0.484608461,132.964446 -1.51440144,123.817462 9.51044104,125.331863 C14.3565257,125.9982 21.9891089,128.784698 27.5621062,132.964446 C27.5015302,132.964446 38.5869487,134.357696 42.7666967,141.990279 Z" fill="#0D9EC6"></path>
                        <path d="M69.1172817,158.648695 C69.1172817,158.648695 73.9633663,146.170027 83.7161116,144.049865 C83.7161116,144.049865 87.8958596,142.656616 89.2891089,139.870117 C89.2891089,139.870117 98.9812781,121.152115 118.426193,134.29712 C118.426193,134.29712 126.058776,141.929703 110.127273,147.5027 C110.127273,147.5027 101.10144,150.289199 94.8621062,148.89595 C94.8621062,148.89595 88.6227723,155.135284 76.1441044,156.528533 C76.0229523,156.528533 71.1768677,157.255446 69.1172817,158.648695 Z" fill="#134856"></path>
                        <path d="M60.5154815,167.189919 C53.1252025,136.29613 9.08640864,132.60099 8.66237624,132.540414 L8.78352835,130.60198 C9.26813681,130.662556 54.70018,134.478848 62.3933393,166.765887 L60.5154815,167.189919 Z" fill="#080A08"></path>
                        <path d="M61.6058506,169.552385 L59.909721,168.583168 C73.1758776,146.291179 108.976328,137.265347 110.490729,136.90189 L110.975338,138.779748 C110.611881,138.840324 74.4479748,147.926733 61.6058506,169.552385 Z" fill="#080A08"></path>
                        <path d="M61.4846985,139.385509 L59.6068407,138.961476 C66.5125113,107.09847 87.7141314,88.7439244 104.372547,78.9911791 C122.363636,68.4509451 138.9009,65.3615662 139.082628,65.3615662 L139.446085,67.3 C139.264356,67.3 122.969397,70.3288029 105.281188,80.7478848 C88.9862286,90.3189019 68.2086409,108.249415 61.4846985,139.385509 Z" fill="#080A08"></path>
                        <path d="M59.7885689,137.507651 C53.670387,84.6247525 19.7477948,67.4211521 19.3843384,67.2394239 L20.2324032,65.4827183 C20.5958596,65.6644464 55.4876688,83.2315032 61.7270027,137.265347 L59.7885689,137.507651 Z" fill="#080A08"></path>
                        <path d="M60.5154815,173.974437 C56.5780378,108.552295 65.6644464,69.2384338 74.0239424,47.7945095 C83.110351,24.4121512 93.1054005,16.6584158 93.5294329,16.2949595 L94.680378,17.869937 C94.5592259,17.9305131 84.6247525,25.7448245 75.720072,48.7637264 C67.4817282,70.0259226 58.5164716,108.976328 62.4539154,173.913861 L60.5154815,173.974437 Z" fill="#080A08"></path>
                        <polygon fill="#123F70" points="94.8015302 169.007201 85.0487849 242.607111 45.5531953 242.607111 35.1341134 169.007201"></polygon>
                    </g>
                    <polygon id="Path" fill="#080A08" points="79.1123312 242.607111 45.5531953 242.607111 35.1341134 169.007201 35.3158416 169.007201"></polygon>
                </g>
                <g id="Group" transform="translate(184.756976, 305.909091)" fill-rule="nonzero">
                    <path d="M125.028983,60.2731773 C124.362646,59.5462646 123.635734,58.8193519 122.969397,58.1530153 C117.69928,53.1252025 119.819442,42.4032403 119.819442,42.4032403 C130.117372,17.5670567 111.944554,14.2353735 111.944554,14.2353735 C91.1669667,-13.3267327 66.7548155,7.39027903 64.9981098,19.0814581 C64.0894689,25.1390639 62.7567957,29.5005401 59.8491449,30.8937894 C45.0080108,37.860036 45.7349235,45.6137714 47.7339334,51.1867687 C48.7031503,53.7915392 49.1271827,55.9117012 49.1877588,57.7289829 C49.2483348,59.5462646 48.2185419,61.1818182 46.5829883,61.9087309 C39.7378938,64.8769577 27.0169217,72.570117 28.4707471,88.0775878 C28.4707471,88.0775878 28.4707471,72.8729973 46.4618362,65.3009901 C45.0685869,66.6942394 43.5541854,67.5423042 42.5849685,68.4509451 C15.5680468,94.3169217 50.0358236,109.339784 50.0358236,109.339784 L122.363636,100.79856 C130.238524,89.8342934 132.479838,81.2324932 131.813501,74.4479748 C136.841314,86.6843384 132.964446,98.4966697 132.964446,98.4966697 C142.050855,75.9018002 129.814491,63.9683168 125.028983,60.2731773 Z" id="Path" fill="#080A08"></path>
                    <g transform="translate(68.450945, 4.240324)">
                        <path d="M29.3188119,52.9434743 C29.0765077,52.8828983 28.8947795,52.8223222 28.8947795,52.8223222 C28.8947795,52.8223222 29.1370837,55.729973 29.5005401,59.970297 C30.4091809,70.8134113 32.1053105,90.2583258 32.2870387,90.6217822 L1.5749775,87.229523 L10.7219622,38.7686769 L5.93645365,35.0735374 L2.66534653,27.9861386 L6.60279028,10.1767777 L41.2522952,8.90468047 L43.4330333,20.9593159 C49.8540954,55.6088209 32.2870387,53.4886589 29.3188119,52.9434743 L29.3188119,52.9434743 Z" id="Path" fill="#FEAF83"></path>
                        <path d="M41.7369037,9.44986499 C35.3158416,0.908640864 22.4737174,4.54320432 22.4737174,4.54320432 C15.0228623,-2.36246625 11.9334833,1.15094509 11.9334833,1.15094509 C7.75373537,-5.39126913 0.484608461,27.380378 0.484608461,27.380378 C1.45382538,36.5879388 10.7219622,38.6475248 10.7219622,38.6475248 C2.72592259,30.8937894 7.81431143,26.4111611 7.81431143,26.4111611 C12.9027003,23.8063906 17.1430243,31.49955 17.1430243,31.49955 L16.5372637,19.1420342 C16.9007201,19.3843384 27.0774977,24.9573357 34.3466247,19.990099 C34.3466247,19.990099 28.0467147,22.049685 22.110261,19.0208821 C32.5293429,20.8381638 41.3734473,16.6584158 41.3734473,16.6584158 L44.9474347,22.2919892 C55.3665167,19.4449145 41.7369037,9.44986499 41.7369037,9.44986499 Z" id="Path" fill="#080A08"></path>
                        <polygon id="Path" fill="#0C0F0C" points="37.4965797 38.6475248 37.2542754 37.860036 40.4648065 36.8908191 37.4965797 27.6832583 38.3446445 27.380378 41.5551755 37.4965797"></polygon>
                        <ellipse id="Oval" fill="#0C0F0C" transform="translate(30.291524, 28.151174) rotate(-87.320633) translate(-30.291524, -28.151174) " cx="30.291524" cy="28.1511739" rx="1.57496682" ry="1.029786"></ellipse>
                        <ellipse id="Oval" fill="#0C0F0C" transform="translate(41.074177, 27.290956) rotate(-78.481075) translate(-41.074177, -27.290956) " cx="41.0741774" cy="27.2909557" rx="1.57504372" ry="1.02983628"></ellipse>
                        <path d="M40.6465347,41.4945995 C40.6465347,41.5551755 40.6465347,41.6763276 40.5859586,41.7369037 C40.5859586,41.7974797 40.5253825,41.8580558 40.4648065,41.9186319 C40.4648065,41.9792079 40.4042304,42.039784 40.3436544,42.10036 C39.5561656,43.5541854 37.9206121,45.4320432 34.8918092,45.4320432 C34.8918092,45.4320432 29.6216922,45.3108911 28.2284428,42.10036 C28.2284428,42.039784 28.1678668,41.9792079 28.1678668,41.9792079 L28.1678668,41.9186319 C28.1678668,41.8580558 28.1072907,41.7974797 28.1072907,41.7974797 C28.1072907,41.7369037 28.1072907,41.7369037 28.1072907,41.6763276 L28.1072907,41.6157516 L28.1072907,41.5551755 C28.1072907,41.4945995 28.1072907,41.4340234 28.1072907,41.3734473 C28.1072907,40.9494149 28.4707471,40.5859586 28.8947795,40.5859586 C28.8947795,40.5859586 32.2264626,41.4340234 34.7706571,41.4340234 C37.3148515,41.4340234 39.919622,40.5859586 39.919622,40.5859586 C40.4042304,40.5859586 40.7071107,41.009991 40.6465347,41.4945995 Z" id="Path" fill="#0C0F0C"></path>
                        <path d="M40.6465347,41.4945995 C35.1341134,44.0387939 30.469757,42.4638164 28.0467147,41.3734473 C28.0467147,40.9494149 28.410171,40.5859586 28.8342034,40.5859586 C28.8342034,40.5859586 32.1658866,41.4340234 34.710081,41.4340234 C37.2542754,41.4340234 39.8590459,40.5859586 39.8590459,40.5859586 C40.4042304,40.5859586 40.7071107,41.009991 40.6465347,41.4945995 Z" id="Path" fill="#FFFFFF"></path>
                    </g>
                    <path d="M155.680468,210.138344 C156.649685,212.80369 191.359766,302.637984 210.259496,336.015392 L224.191989,328.019352 C224.191989,328.019352 200.385599,177.487849 164.766877,195.721242 L155.680468,210.138344 Z" id="Path" fill="#FEAF83"></path>
                    <path d="M159.860216,220.618002 C159.860216,220.618002 184.030063,203.172097 191.359766,233.581278 L179.486859,352.431503 L162.646715,352.431503 C162.646715,352.431503 153.742034,269.563456 159.920792,250.966607 L144.716202,248.725293 L159.860216,220.618002 Z" id="Path" fill="#FEAF83"></path>
                    <path d="M57.4261026,258.417462 C57.4261026,258.417462 57.1232223,354.612241 57.4261026,354.612241 C57.7289829,354.612241 68.5720972,354.612241 68.5720972,354.612241 L68.5720972,258.417462 L57.4261026,258.417462 L57.4261026,258.417462 Z" id="Path" fill="#080A08"></path>
                    <polygon id="Path" fill="#FEAF83" points="124.968407 100.737984 138.355716 115.942574 214.984428 144.716202 214.984428 154.832403 163.252475 152.591089 126.785689 135.448065 115.70027 126.058776"></polygon>
                    <path d="M127.330873,233.944734 L125.69532,244.060936 L119.334833,253.874257 C116.427183,258.417462 111.39937,261.143384 106.008101,261.143384 L17.9305131,261.749145 C11.8123312,261.809721 6.17875788,258.538614 3.21053105,253.207921 L1.9990099,251.027183 C-0.121152115,247.271467 0.24230423,243.031143 2.30189019,239.820612 C4.17974797,236.852385 7.45085509,234.792799 11.4488749,234.732223 L127.330873,233.944734 Z" id="Path" fill="#0D9BC3"></path>
                    <path d="M60.8183618,234.429343 L54.2761476,248.785869 C22.110261,251.148335 6.11818182,247.877228 2.30189019,239.820612 C4.17974797,236.852385 7.45085509,234.792799 11.4488749,234.732223 L60.8183618,234.429343 Z" id="Path" fill="#080A08"></path>
                    <path d="M51.3684968,159.920792 C51.3684968,159.920792 6.96624662,226.251575 54.1549955,248.785869 L100.253375,248.785869 L155.377588,250.60315 L173.732133,194.025113 L104.857156,192.99532 L100.011071,159.920792 L51.3684968,159.920792 Z" id="Path" fill="#173A49"></path>
                    <path d="M115.881998,129.451035 C116.00315,129.572187 115.821422,129.511611 115.881998,129.451035 L115.881998,129.451035 Z" id="Path" fill="#E7316D"></path>
                    <path d="M129.208731,104.493699 L115.881998,129.451035 C115.70027,129.269307 115.094509,128.724122 113.156076,127.149145 C112.186859,126.361656 110.854185,125.271287 109.09748,123.878038 C109.036904,123.817462 108.976328,123.756886 108.915752,123.69631 L108.491719,127.694329 L108.309991,129.329883 L108.309991,129.451035 L108.007111,132.661566 L107.219622,140.112421 L105.160036,159.860216 L104.433123,166.523582 L103.827363,172.217732 L45.6743474,169.976418 L43.2513051,109.521512 C43.2513051,109.521512 35.3158416,74.0845185 75.7806481,61.1818182 C75.7806481,61.1818182 79.4757876,78.6277228 98.0726373,67.9057606 C98.0726373,67.9057606 101.162016,71.0557156 105.705221,75.9623762 C107.885959,78.3248425 110.309001,81.0507651 112.913771,84.0189919 C118.305041,90.1977498 124.241494,97.4063006 129.208731,104.493699 Z" id="Path" fill="#FD7F6E"></path>
                    <rect id="Rectangle" fill="#080A08" x="280.043114" y="168.219712" width="11.6911791" height="197.90198"></rect>
                    <rect id="Rectangle" fill="#080A08" x="131.752925" y="168.219712" width="11.6911791" height="197.90198"></rect>
                    <polygon id="Path" fill="#000000" points="107.946535 132.722142 107.159046 140.172997 91.7121512 136.841314 80.5661566 105.765797 102.79757 132.358686"></polygon>
                    <polygon id="Path" fill="#000000" points="105.09946 159.920792 104.433123 166.584158 91.1063906 166.09955 60.7577858 122.121332 102.79757 152.651665"></polygon>
                    <g transform="translate(53.306931, 175.670567)" fill="#0D9BC3">
                        <path d="M5.1489649,3.08937894 L3.93744374,2.84707471 C4.24032403,1.33267327 4.48262826,0.484608461 4.48262826,0.484608461 L5.63357336,0.787488749 C5.63357336,0.726912691 5.45184518,1.5749775 5.1489649,3.08937894 Z" id="Path"></path>
                        <path d="M38.8292529,60.4549055 C37.1936994,60.4549055 35.6187219,60.3943294 34.1043204,60.3337534 L34.1648965,59.1222322 C35.6187219,59.1828083 37.1936994,59.1828083 38.8292529,59.2433843 L38.8292529,60.4549055 Z M43.5541854,60.4549055 L43.5541854,59.2433843 C45.0685869,59.2433843 46.6435644,59.1828083 48.2185419,59.1222322 L48.2791179,60.3337534 C46.6435644,60.3943294 45.0685869,60.4549055 43.5541854,60.4549055 Z M53.0040504,60.2126013 L52.9434743,59.0010801 C54.4578758,58.9405041 56.0328533,58.879928 57.6078308,58.8193519 L57.6684068,60.0308731 C56.0934293,60.0914491 54.5184518,60.1520252 53.0040504,60.2126013 Z M29.439964,60.1520252 C27.7438344,60.0308731 26.1688569,59.909721 24.7150315,59.7279928 L24.8361836,58.5164716 C26.290009,58.6981998 27.8649865,58.8193519 29.5005401,58.9405041 L29.439964,60.1520252 Z M62.3933393,59.7279928 L62.3327633,58.5164716 C63.8471647,58.4558956 65.4221422,58.3347435 66.9971197,58.2135914 L67.0576958,59.4251125 C65.4827183,59.5462646 63.9077408,59.6674167 62.3933393,59.7279928 Z M71.7826283,59.1828083 L71.7220522,57.9712871 C73.2364536,57.850135 74.8114311,57.7289829 76.3864086,57.6078308 L76.5075608,58.8193519 C74.8720072,58.9405041 73.2970297,59.0616562 71.7826283,59.1828083 Z M20.0506751,59.0010801 C18.3545455,58.6981998 16.840144,58.2741674 15.4468947,57.850135 L15.810351,56.6991899 C17.1430243,57.1232223 18.6574257,57.5472547 20.2929793,57.850135 L20.0506751,59.0010801 Z M90.5612061,57.6684068 L90.440054,56.4568857 C91.9544554,56.3357336 93.5294329,56.1540054 95.1044104,56.0328533 L95.2255626,57.2443744 C93.6505851,57.3655266 92.0756076,57.5472547 90.5612061,57.6684068 Z M11.0248425,55.9117012 C9.63159316,55.1242124 8.42007201,54.2155716 7.1479748,53.0646265 L7.9960396,52.1559856 C9.20756076,53.2463546 10.3585059,54.0944194 11.6306031,54.8819082 L11.0248425,55.9117012 Z M3.87686769,49.4906391 C3.02880288,48.339694 2.36246625,46.8252925 1.81728173,45.0685869 L2.96822682,44.7051305 C3.45283528,46.3406841 4.11917192,47.7339334 4.84608461,48.7637264 L3.87686769,49.4906391 Z M0.848064806,40.4042304 C0.666336634,38.950405 0.545184518,37.3754275 0.424032403,35.6792979 L1.63555356,35.6187219 C1.69612961,37.2542754 1.81728173,38.8292529 1.9990099,40.2225023 L0.848064806,40.4042304 Z M1.63555356,30.8937894 L0.424032403,30.8937894 C0.484608461,29.3793879 0.545184518,27.8044104 0.666336634,26.1688569 L1.87785779,26.2294329 C1.69612961,27.8649865 1.63555356,29.439964 1.63555356,30.8937894 Z M2.24131413,21.5650765 L1.02979298,21.4439244 C1.21152115,19.929523 1.39324932,18.3545455 1.5749775,16.779568 L2.78649865,16.9612961 C2.54419442,18.4756976 2.36246625,20.0506751 2.24131413,21.5650765 Z M3.45283528,12.2969397 L2.24131413,12.1152115 C2.48361836,10.6008101 2.72592259,9.02583258 3.02880288,7.45085509 L4.24032403,7.69315932 C3.93744374,9.20756076 3.69513951,10.7825383 3.45283528,12.2969397 Z" id="Shape"></path>
                        <rect id="Rectangle" transform="translate(101.088049, 56.066254) rotate(-5.349826) translate(-101.088049, -56.066254) " x="99.8765813" y="55.4605199" width="2.42293524" height="1.21146762"></rect>
                    </g>
                    <path d="M80.5661566,105.765797 L101.707201,135.326913 L195.29721,146.170027 L195.29721,157.437174 L99.3447345,158.951575 C97.0428443,159.012151 94.8621062,158.042934 93.2871287,156.407381 L62.4539154,123.938614 L80.5661566,105.765797 Z" id="Path" fill="#FEAF83"></path>
                    <rect id="Rectangle" fill="#0D9BC3" x="104.311971" y="158.709271" width="208.442214" height="12.3575158"></rect>
                    <rect id="Rectangle" fill="#0D9BC3" x="16.779568" y="352.431503" width="89.349685" height="13.629613"></rect>
                    <path d="M206.564356,93.5294329 L282.647885,93.5294329 C285.858416,93.5294329 288.039154,96.8611161 286.706481,99.8293429 L261.688569,156.043924 C260.961656,157.679478 259.386679,158.709271 257.629973,158.709271 L174.640774,158.709271 L202.505761,96.1947795 C203.172097,94.5592259 204.807651,93.5294329 206.564356,93.5294329 Z" id="Path" fill="#535786"></path>
                    <rect id="Rectangle" fill="#535786" x="128.905851" y="152.651665" width="53.5492349" height="6.05760576"></rect>
                    <path d="M215.650765,366.242844 L162.162106,366.242844 C160.223672,366.242844 158.769847,364.486139 159.133303,362.547705 L161.79865,348.554635 C161.79865,348.554635 176.882088,351.886319 180.274347,345.222952 L216.377678,363.335194 C217.831503,364.062106 217.286319,366.242844 215.650765,366.242844 Z" id="Path" fill="#22214B"></path>
                    <path d="M263.808731,330.684698 L213.530603,348.857516 C211.713321,349.523852 209.714311,348.372907 209.411431,346.434473 L207.170117,332.380828 C207.170117,332.380828 222.49586,330.381818 223.4045,322.930963 L263.505851,327.655896 C265.080828,327.8982 265.323132,330.139514 263.808731,330.684698 Z" id="Path" fill="#22214B"></path>
                    <path d="M188.633843,267.261566 L187.422322,267.019262 C191.965527,244.606121 190.329973,229.462106 182.69739,222.132403 C175.912871,215.650765 166.584158,217.831503 166.523582,217.892079 L166.220702,216.741134 C166.644734,216.619982 176.276328,214.318092 183.545455,221.284338 C191.541494,228.916922 193.237624,244.363816 188.633843,267.261566 Z" id="Path" fill="#0C0F0C"></path>
                    <circle id="Oval" fill="#F5F5F5" cx="238.063906" cy="126.906841" r="6.05760576"></circle>
                    <path d="M62.090459,124.423222 C46.5224122,108.007111 50.459856,93.9534653 50.6415842,93.3477048 L51.7925293,93.7111611 C51.7319532,93.8323132 47.9156616,107.764806 62.9990999,123.635734 L62.090459,124.423222 Z" id="Path" fill="#000000"></path>
                    <path d="M113.156076,127.149145 C112.186859,126.361656 110.854185,125.271287 109.09748,123.878038 C108.673447,113.216652 107.946535,88.6227723 107.946535,88.6227723 C109.40036,95.2255626 112.429163,120.788659 113.156076,127.149145 Z" id="Path" fill="#000000"></path>
                    <polygon id="Path" fill="#000000" points="180.819532 145.140234 131.571197 138.779748 116.548335 127.754905 117.275248 126.785689 131.99523 137.628803 181.00126 143.928713"></polygon>
                    <path d="M91.4092709,0.969216922 C91.4092709,0.969216922 66.8759676,-1.93843384 57.9712871,24.8967597 C57.9712871,24.8967597 62.9990999,6.96624662 88.6833483,2.72592259 L91.4092709,0.969216922 Z" id="Path" fill="#080A08"></path>
                </g>
                <g id="Group" transform="translate(21.509451, 389.504050)" fill="#8AB3CE" fill-rule="nonzero">
                    <rect id="Rectangle" x="483.089109" y="17.1430243" width="49.1271827" height="21.3833483"></rect>
                    <rect id="Rectangle" x="539.121962" y="17.1430243" width="49.1271827" height="21.3833483"></rect>
                    <rect id="Rectangle" x="510.893519" y="44.0993699" width="49.1271827" height="21.3833483"></rect>
                    <rect id="Rectangle" x="0.903690369" y="0.121152115" width="49.1271827" height="21.3833483"></rect>
                    <rect id="Rectangle" x="28.7686769" y="27.0774977" width="49.1271827" height="21.3833483"></rect>
                    <rect id="Rectangle" x="505.683978" y="206.927813" width="49.1271827" height="21.3833483"></rect>
                </g>
                <g id="Group" transform="translate(0.000000, 184.151215)" fill-rule="nonzero">
                    <rect id="Rectangle" fill="#FFFFFF" x="0.363456346" y="64.8769577" width="183.30315" height="21.2621962"></rect>
                    <path d="M191.178038,96.8611161 L5.81530153,96.8611161 L5.81530153,73.59991 L191.178038,73.59991 L191.178038,96.8611161 Z M7.87488749,94.8015302 L189.118452,94.8015302 L189.118452,75.5989199 L7.87488749,75.5989199 L7.87488749,94.8015302 Z" id="Shape" fill="#FFFFFF"></path>
                    <rect id="Rectangle" fill="#080A08" transform="translate(138.911907, 89.971989) rotate(-41.700157) translate(-138.911907, -89.971989) " x="134.762649" y="81.6431866" width="8.29851572" height="16.6576046"></rect>
                    <path d="M142.838344,49.9146715 C142.838344,72.8124212 124.30207,91.3486949 101.40432,91.3486949 C98.0726373,91.3486949 94.8015302,90.9246625 91.7121512,90.1977498 C88.5621962,89.4708371 85.5333933,88.319892 82.7468947,86.9266427 C76.4469847,83.7766877 71.1162916,78.9911791 67.1788479,73.2364536 C64.3317732,69.0567057 62.2116112,64.2711971 61.0606661,59.1828083 C60.3943294,56.2145815 60.0308731,53.1252025 60.0308731,49.9146715 C60.0308731,27.0169217 78.5671467,8.48064806 101.464896,8.48064806 C103.766787,8.48064806 106.068677,8.66237624 108.309991,9.02583258 C114.00414,9.9950495 119.334833,12.0546355 123.99919,15.0834383 C128.966427,18.2939694 133.267327,22.5948695 136.417282,27.6226823 C138.113411,30.2274527 139.506661,33.0745275 140.536454,36.0427543 C141.990279,40.4042304 142.838344,45.0685869 142.838344,49.9146715 Z" id="Path" fill="#ADDEED" opacity="0.72"></path>
                    <path d="M138.416292,30.8937894 L87.0477948,86.9266427 C83.7161116,86.1391539 80.5661566,84.9882088 77.5979298,83.5343834 L134.054815,22.1708371 C135.811521,24.8361836 137.325923,27.8044104 138.416292,30.8937894 Z" id="Path" fill="#FFFFFF" opacity="0.58"></path>
                    <path d="M123.878038,15.0834383 L67.1182718,73.2364536 C64.2711971,69.0567057 62.1510351,64.2711971 61.00009,59.1828083 L108.249415,9.02583258 C113.943564,9.9950495 119.213681,12.0546355 123.878038,15.0834383 Z" id="Path" fill="#FFFFFF" opacity="0.58"></path>
                    <path d="M101.707201,98.3149415 C74.629703,98.3149415 52.580018,76.2652565 52.580018,49.1877588 C52.580018,22.110261 74.629703,0.0605760576 101.707201,0.0605760576 C128.784698,0.0605760576 150.834383,22.110261 150.834383,49.1877588 C150.834383,76.2652565 128.784698,98.3149415 101.707201,98.3149415 Z M101.707201,8.90468047 C79.4757876,8.90468047 61.4241224,26.9563456 61.4241224,49.1877588 C61.4241224,71.4191719 79.4757876,89.4708371 101.707201,89.4708371 C123.938614,89.4708371 141.990279,71.4191719 141.990279,49.1877588 C141.990279,26.9563456 123.938614,8.90468047 101.707201,8.90468047 Z" id="Shape" fill="#535786"></path>
                    <path d="M137.628803,104.372547 L178.759946,150.531503 C179.971467,151.864176 182.031053,151.985329 183.363726,150.773807 L194.570297,140.778758 C195.90297,139.567237 196.024122,137.507651 194.812601,136.174977 L153.681458,90.0160216 C152.469937,88.6833483 150.410351,88.5621962 149.077678,89.7737174 L137.871107,99.7687669 C136.538434,100.919712 136.417282,103.039874 137.628803,104.372547 Z" id="Path" fill="#535786"></path>
                </g>
            </g>
        </g>
    </g>
</svg>