<?xml version="1.0" encoding="UTF-8"?>
<svg width="162px" height="129px" viewBox="0 0 162 129" version="1.1" xmlns="http://www.w3.org/2000/svg" xmlns:xlink="http://www.w3.org/1999/xlink">
    <title>B3F13441-3E53-4677-961A-373E1B6943BD</title>
    <g id="Design" stroke="none" stroke-width="1" fill="none" fill-rule="evenodd">
        <g id="001-Homepage" transform="translate(-639.000000, -1198.000000)" fill-rule="nonzero">
            <g id="OBGYN-" transform="translate(639.000000, 1198.000000)">
                <path d="M3.42774069,68.7100163 C5.33135153,73.6140799 7.63027501,78.3928825 11.4636678,81.9423203 C17.9094468,87.8769802 27.1663805,89.6942924 35.9405906,90.0634339 C44.7148008,90.4041799 53.602593,89.5523148 62.2064301,91.256045 C70.0435887,92.7894021 77.3696282,96.4240264 83.9005937,101.024098 C92.5328264,107.100735 100.142821,115.079871 110.109642,118.600914 C117.350495,121.128113 111.395526,120.105875 132.826044,120.105875 C154.256561,120.105875 160.710427,98.894435 161.13636,93.3573121 C162.328971,77.4558309 157.388153,61.5543497 149.522599,47.6689492 C143.587939,37.1626134 134.842125,26.8834416 122.916014,24.867361 C111.13188,22.8796758 99.8020749,29.4390368 89.3525301,35.2601148 C78.9029854,41.0811927 66.5225464,46.4763381 55.3631141,42.1886173 C49.0025216,39.7466041 44.2036818,34.5218317 39.7739834,29.3538503 C37.3035747,26.4859046 34.8331661,23.5043769 31.5960788,21.5450872 C23.0490327,16.3487104 10.2426612,20.8068042 6.77840995,30.2057154 C0.17175731,44.6098964 -0.945132441,57.4446634 3.42774069,68.7100163 Z" id="Path" fill="#D9E6F4"></path>
                <path d="M54.113712,46.7886886 C54.113712,46.7886886 60.786655,57.6925615 51.3025573,66.8359131 C51.3025573,66.8359131 26.6836569,86.6275781 44.1468908,102.443873 L81.7141401,104.488349 L81.7141401,43.2392509 L54.113712,46.7886886 Z" id="Path" fill="#161B52"></path>
                <path d="M109.42815,46.7886886 C109.42815,46.7886886 102.755207,57.6925615 112.239305,66.8359131 C112.239305,66.8359131 136.858205,86.6275781 119.394971,102.443873 L81.8277221,104.488349 L81.8277221,43.2392509 L109.42815,46.7886886 Z" id="Path" fill="#161B52"></path>
                <rect id="Rectangle" fill="#EF9481" x="71.1510133" y="67.2334502" width="21.0978581" height="21.3818131"></rect>
                <path d="M121.098702,102.301895 C120.559187,99.6327181 118.798666,97.3610779 116.328257,96.1684668 L92.2204759,84.583102 C92.2204759,84.583102 88.1031281,88.3597038 82.5092141,88.4732858 L82.5092141,88.3880993 C82.2252591,88.4164948 81.9413041,88.4448903 81.6573491,88.4448903 C81.373394,88.4448903 81.089439,88.4164948 80.805484,88.3880993 L80.805484,88.4732858 C75.2115701,88.3313083 71.0942223,84.583102 71.0942223,84.583102 L46.986441,96.1684668 C44.5160323,97.3610779 42.7555111,99.6327181 42.2159966,102.301895 L42.2159966,102.301895 C39.5468194,115.619386 49.7408047,128.056664 63.3422502,128.056664 L80.7770885,128.056664 L82.4808186,128.056664 L99.9156569,128.056664 C113.573893,128.085011 123.767879,115.647781 121.098702,102.301895 L121.098702,102.301895 Z" id="Path" fill="#00ACD4"></path>
                <path d="M107.355278,31.9094455 L81.7993266,15.7808003 L81.7993266,15.5536363 L81.6289536,15.6672183 L81.4585806,15.5536363 L81.4585806,15.7808003 L56.1865837,31.9094455 C43.3518167,42.4157813 57.9471048,52.4961846 57.9471048,52.4961846 C64.6768388,74.7866537 79.0165674,77.626204 81.4585806,77.96695 L81.4585806,77.9953455 C81.4585806,77.9953455 81.5153716,77.9953455 81.6289536,77.96695 C81.7425356,77.96695 81.7993266,77.9953455 81.7993266,77.9953455 L81.7993266,77.96695 C84.2697353,77.6545995 98.8650234,74.8150492 105.566362,52.4961846 C105.566362,52.4961846 120.16165,42.4157813 107.355278,31.9094455 Z" id="Path" fill="#EF9481"></path>
                <path d="M82.1400726,0.589206669 L82.1400726,0.589206669 C82.1400726,0.560811167 82.0832816,0.560811167 81.9696996,0.589206669 C81.8561176,0.589206669 81.7993266,0.589206669 81.7993266,0.589206669 L81.7993266,0.617602171 C78.2214933,0.873161691 46.0777849,3.93987592 52.0124448,36.6798899 C52.0124448,36.6798899 56.8396802,34.5218317 57.8619183,41.3367522 C57.8619183,41.3367522 79.3857089,32.4773556 81.9696996,22.1129973 C84.5536903,32.4773556 105.537966,41.3367522 105.537966,41.3367522 C106.531809,34.5218317 111.38744,36.6798899 111.38744,36.6798899 C117.3221,3.93987592 85.6895104,0.844766188 82.1400726,0.589206669 Z" id="Path" fill="#161B52"></path>
            </g>
        </g>
    </g>
</svg>