<?xml version="1.0" encoding="UTF-8"?>
<svg width="163px" height="129px" viewBox="0 0 163 129" version="1.1" xmlns="http://www.w3.org/2000/svg" xmlns:xlink="http://www.w3.org/1999/xlink">
    <title>F2886873-B245-4DD3-B7FA-29A4027A1EAD</title>
    <g id="Design" stroke="none" stroke-width="1" fill="none" fill-rule="evenodd">
        <g id="001-Homepage" transform="translate(-249.000000, -1198.000000)" fill-rule="nonzero">
            <g id="Primary-Care-" transform="translate(249.000000, 1198.000000)">
                <path d="M3.8655357,34.5232877 C-0.587331601,45.1239846 -1.04698242,57.3334595 2.60149595,68.2214383 C4.26773016,73.2201409 6.85326602,78.0177463 10.7315698,81.6087683 C17.2528658,87.6129571 26.6182512,89.4515604 35.4952576,89.8250267 C44.372264,90.1697648 53.3641832,89.3079195 62.0688205,91.0316101 C69.9977971,92.5829316 77.4096666,96.2601382 84.0171471,100.914103 C92.7505126,107.061932 100.449664,115.13455 110.533254,118.696844 C117.858939,121.253651 125.845372,121.196195 133.515795,120.219437 C142.421529,119.07031 151.901827,116.254949 157.187812,108.98672 C160.491552,104.447668 161.726864,98.7594895 162.157786,93.1574951 C163.36437,77.0697165 158.365667,60.9819379 150.407962,46.9338597 C144.403773,36.3044346 135.555495,25.9048348 123.489661,23.8651343 C111.567468,21.854162 100.104926,28.4903707 89.5329569,34.3796468 C78.9609881,40.2401947 66.4355033,45.7272763 55.1453301,41.3893217 C48.7102186,38.9186986 43.8551569,33.6327142 39.3735614,28.4041861 C36.8742101,25.5026404 34.3748587,22.4861819 31.0998467,20.5039377 C22.4526657,15.2466815 9.49625822,19.7570051 5.99142073,29.2660314 L3.8655357,34.5232877 Z" id="Path" fill="#D9E6F4"></path>
                <path d="M71.7502159,65.894456 C57.1275742,57.3909159 50.1753556,45.9283736 46.9003435,37.8270279 C43.223137,28.7201961 42.3612917,18.8089753 44.7170022,12.5749611 C48.1069269,3.52558561 57.414856,1.39970058 61.8964515,1.51461329 L61.7815388,5.53655794 C61.3793443,5.53655794 51.6979489,5.39291706 48.4803932,13.9826417 C44.7744585,23.9225907 50.0317147,48.600094 73.7899164,62.4183467 L71.7502159,65.894456 Z" id="Path" fill="#00ACD4"></path>
                <path d="M73.7899164,65.894456 C88.412558,57.3909159 95.3647767,45.9283736 98.6397887,37.8270279 C102.316995,28.7201961 103.178841,18.8089753 100.82313,12.5749611 C97.4332053,3.52558561 88.1252763,1.39970058 83.6436808,1.51461329 L83.7585935,5.53655794 C84.160788,5.53655794 93.8421833,5.39291706 97.0597391,13.9826417 C100.765674,23.9225907 95.5084175,48.600094 71.7502159,62.4183467 L73.7899164,65.894456 Z" id="Path" fill="#00ACD4"></path>
                <path d="M60.9196935,3.43940109 L60.9196935,3.43940109 C60.9196935,5.27800436 62.4135586,6.74314134 64.2234337,6.74314134 L66.4642315,6.74314134 C68.3028348,6.74314134 69.7679717,5.24927618 69.7679717,3.43940109 L69.7679717,3.43940109 C69.7679717,1.60079781 68.2741066,0.135660832 66.4642315,0.135660832 L64.2234337,0.135660832 C62.4135586,0.106932656 60.9196935,1.60079781 60.9196935,3.43940109 Z" id="Path" fill="#161B52"></path>
                <path d="M75.8296169,3.43940109 L75.8296169,3.43940109 C75.8296169,5.27800436 77.3234821,6.74314134 79.1333572,6.74314134 L81.3741549,6.74314134 C83.2127582,6.74314134 84.6778951,5.24927618 84.6778951,3.43940109 L84.6778951,3.43940109 C84.6778951,1.60079781 83.18403,0.135660832 81.3741549,0.135660832 L79.1333572,0.135660832 C77.3234821,0.106932656 75.8296169,1.60079781 75.8296169,3.43940109 Z" id="Path" fill="#161B52"></path>
                <g id="Group" transform="translate(51.755405, 45.583635)" fill="#161B52">
                    <path d="M2.29825409,1.55132151 C2.29825409,1.55132151 12.8702229,15.1110206 21.3163067,18.5584018" id="Path"></path>
                    <path d="M19.9660824,21.862142 C12.2669312,18.7307708 3.70593472,8.9057346 0.574563523,5.11361535 C-0.0287281761,4.36668277 0.0861845284,3.2462839 0.861845284,2.67172038 L3.82084742,0.37346629 C4.56778,-0.201097233 5.60199434,-0.0861845284 6.20528604,0.632019875 C9.71012353,4.85506177 17.1507211,12.9564074 22.6952591,15.1972052 L19.9660824,21.862142 Z" id="Path"></path>
                </g>
                <g id="Group" transform="translate(71.003283, 45.583635)" fill="#161B52">
                    <path d="M20.4257332,1.55132151 C20.4257332,1.55132151 9.85376441,15.1110206 1.40768063,18.5584018" id="Path"></path>
                    <path d="M2.75790491,21.862142 C10.4570561,18.7307708 19.0180526,8.9057346 22.1494238,5.11361535 C22.7527155,4.36668277 22.6378028,3.2462839 21.862142,2.67172038 L18.9031399,0.37346629 C18.1562073,-0.201097233 17.121993,-0.0861845284 16.5187013,0.632019875 C13.0138638,4.85506177 5.57326617,12.9564074 0.0287281761,15.1972052 L2.75790491,21.862142 Z" id="Path"></path>
                </g>
                <path d="M57.414856,128.292055 C57.2137588,128.292055 57.0988461,128.292055 57.0701179,128.292055 L56.9839334,128.292055 C48.7102186,127.458937 44.9755557,122.402778 43.3093215,118.294649 C41.6143591,114.157792 41.6718155,110.222032 41.7005437,109.762381 L41.7005437,73.5936072 C41.7005437,65.1762516 38.3393471,60.8670252 31.7318665,60.8670252 C31.7031384,60.8670252 31.7031384,60.8670252 31.6744102,60.8670252 C28.4281263,60.8670252 25.928775,61.9299677 24.0327153,64.0845809 C18.430721,70.4909642 20.2118679,84.0506633 20.2118679,84.1943042 L16.793215,84.653955 C16.7070304,84.0219351 14.8109708,69.3705653 21.4184513,61.815055 C23.975259,58.9135092 27.4226401,57.419644 31.645682,57.419644 C31.6744102,57.419644 31.7031384,57.419644 31.7031384,57.419644 C36.701841,57.4483722 45.1191966,59.5742572 45.1191966,73.5936072 L45.1191966,109.848565 C45.0904684,110.394401 44.7744585,123.580634 57.2424869,124.873402 C57.7021378,124.873402 63.2754039,124.90213 67.2111641,120.851457 C70.3999916,117.547717 71.8076722,112.434101 71.3192932,105.596795 L71.3192932,105.481883 L71.3192932,62.1023367 L74.7666744,62.1023367 L74.7666744,105.424426 C75.3125097,113.267218 73.5888192,119.300135 69.653059,123.293352 C65.0565508,127.976045 58.9661775,128.292055 57.414856,128.292055 Z" id="Path" fill="#161B52"></path>
                <circle id="Oval" fill="#F0947F" cx="18.2296238" cy="92.0658244" r="10.6294252"></circle>
                <path d="M28.8590489,92.0658244 C28.8590489,97.9263724 24.0901717,102.69525 18.2296238,102.69525 L18.2296238,81.4363993 C24.0901717,81.4363993 28.8590489,86.2052765 28.8590489,92.0658244 Z" id="Path" fill="#EA6957"></path>
                <path d="M64.3383464,71.5251785 L88.9296652,71.5251785 C91.4577447,71.5251785 93.8709115,72.6455774 95.5084175,74.5703652 L111.308914,85.8892666 L122.800185,85.8892666 L122.800185,105.137145 L95.7669711,105.481883 C90.5671712,105.539339 85.3673714,104.677494 80.4548533,102.925075 L74.7666744,100.885375 L64.8841818,100.885375 L74.9677716,77.5580955 C74.9964998,77.5580955 63.1892194,79.7127087 64.3383464,71.5251785 Z" id="Path" fill="#EF9481"></path>
                <path d="M58.5927112,80.8618357 L58.5927112,80.8618357 C58.5927112,82.6429827 60.02912,84.0793915 61.8102669,84.0793915 L78.3289682,84.0793915 C80.1101151,84.0793915 81.5465239,82.6429827 81.5465239,80.8618357 L81.5465239,80.8618357 C81.5465239,79.0806888 80.1101151,77.64428 78.3289682,77.64428 L61.8102669,77.64428 C60.02912,77.6730082 58.5927112,79.109417 58.5927112,80.8618357 Z" id="Path" fill="#F2C3B1"></path>
                <path d="M55.7486218,86.8660246 L55.7486218,86.8660246 C55.7486218,88.6471715 57.1850306,90.0835803 58.9661775,90.0835803 L78.30024,90.0835803 C80.081387,90.0835803 81.5177958,88.6471715 81.5177958,86.8660246 L81.5177958,86.8660246 C81.5177958,85.0848776 80.081387,83.6484688 78.30024,83.6484688 L58.9661775,83.6484688 C57.1850306,83.6484688 55.7486218,85.0848776 55.7486218,86.8660246 Z" id="Path" fill="#F2C3B1"></path>
                <path d="M58.0468759,92.8414852 L58.0468759,92.8414852 C58.0468759,94.6226321 59.4832847,96.0590409 61.2644316,96.0590409 L78.30024,96.0590409 C80.081387,96.0590409 81.5177958,94.6226321 81.5177958,92.8414852 L81.5177958,92.8414852 C81.5177958,91.0603383 80.081387,89.6239295 78.30024,89.6239295 L61.2644316,89.6239295 C59.4832847,89.6239295 58.0468759,91.0603383 58.0468759,92.8414852 Z" id="Path" fill="#F2C3B1"></path>
                <path d="M61.494257,98.184926 L61.494257,98.184926 C61.494257,99.6500629 62.6721122,100.856646 64.1372492,100.856646 L78.788619,101.057744 C80.2824842,101.086472 81.5177958,99.8798883 81.5177958,98.3860232 L81.5177958,98.3860232 C81.5177958,96.9208862 80.3399405,95.7143028 78.8748036,95.7143028 L64.2234337,95.5132056 C62.7295686,95.4844774 61.494257,96.6910608 61.494257,98.184926 Z" id="Path" fill="#F2C3B1"></path>
                <rect id="Rectangle" fill="#EA6957" x="110.648166" y="36.9651826" width="27.1768546" height="27.1768546"></rect>
                <polygon id="Path" fill="#161B52" points="122.800185 113.382131 157.159084 113.382131 157.159084 83.7059252 122.800185 85.8892666"></polygon>
                <polygon id="Path" fill="#FFFFFF" points="131.734648 47.5371514 127.224324 47.5371514 127.224324 43.0268278 121.220135 43.0268278 121.220135 47.5371514 116.709812 47.5371514 116.709812 53.5413403 121.220135 53.5413403 121.220135 58.0516639 127.224324 58.0516639 127.224324 53.5413403 131.734648 53.5413403"></polygon>
            </g>
        </g>
    </g>
</svg>