<?xml version="1.0" encoding="UTF-8"?>
<svg width="162px" height="116px" viewBox="0 0 162 116" version="1.1" xmlns="http://www.w3.org/2000/svg" xmlns:xlink="http://www.w3.org/1999/xlink">
    <title>EB93B961-065D-4355-A7AF-F827C46011F9</title>
    <g id="Design" stroke="none" stroke-width="1" fill="none" fill-rule="evenodd">
        <g id="001-Homepage" transform="translate(-639.000000, -1473.000000)" fill-rule="nonzero">
            <g id="Pshychiatrist" transform="translate(639.000000, 1473.000000)">
                <path d="M9.98667489,30.3623488 C5.91970322,40.0443652 5.49988679,51.1957392 8.83217971,61.1401409 C10.3540143,65.7056446 12.7154817,70.0874786 16.2576828,73.3672944 C22.2138285,78.8511466 30.7675882,80.5304123 38.8752931,80.8715131 C46.9829979,81.1863755 55.1956568,80.3992197 63.1459305,81.9735313 C70.3877639,83.3904117 77.1573039,86.7489432 83.1921651,90.9995845 C91.1686773,96.6146293 98.2006025,103.987655 107.410325,107.241233 C114.10115,109.576462 121.39546,109.523985 128.401147,108.631875 C136.53509,107.582334 145.193804,105.010958 150.021693,98.3726106 C153.039124,94.2269234 154.16738,89.031695 154.560958,83.9151823 C155.662976,69.2216072 151.097473,54.5280321 143.829401,41.6973924 C138.345549,31.9891374 130.264082,22.4907907 119.243901,20.6278553 C108.354912,18.7911584 97.8857402,24.8522581 88.2299622,30.2311561 C78.5741843,35.6100542 67.1341866,40.5953743 56.8224455,36.6333567 C50.9450155,34.3768434 46.5107044,29.5489544 42.4174942,24.7735425 C40.1347424,22.1234513 37.8519905,19.368406 34.8607984,17.5579476 C26.9630018,12.7562972 15.1294262,16.8757459 11.9283259,25.5606983 L9.98667489,30.3623488 Z" id="Path" fill="#D9E6F4"></path>
                <path d="M60.2596925,115.060314 L60.2596925,99.8944452 L42.8635492,99.8944452 C42.8635492,99.8944452 35.6217157,100.314262 35.9890551,92.1540797 L35.9890551,72.5801386 L27.8813503,72.5801386 C24.7852041,72.5801386 22.8435531,69.2216072 24.3916262,66.5452774 L34.8083214,48.3357397 C34.8083214,48.3357397 35.6741928,45.4232632 35.385569,34.2981278 C35.385569,34.2981278 34.0736426,1.8673085 79.3613401,0.108220722 C79.3613401,0.108220722 116.462617,-0.625351559 121.447937,35.7674853 C121.447937,35.7674853 123.205919,51.8254638 113.707572,64.3937182 C113.707572,64.3937182 104.366656,77.9852752 104.366656,94.9353636 L104.366656,115.086552 L60.2596925,115.086552 L60.2596925,115.060314 Z" id="Path" fill="#161B52"></path>
                <path d="M96.5475753,13.9632694 L96.5475753,13.9632694 C92.1132642,9.31905015 84.7402382,9.16161899 80.0960189,13.59593 L78.4167532,15.2227187 L76.7374874,13.59593 C72.0932682,9.16161899 64.7464806,9.31905015 60.2859311,13.9632694 L60.2859311,13.9632694 C55.85162,18.6074887 56.0090512,25.9542762 60.6532704,30.4148258 L78.4167532,47.3649142 L96.1802359,30.4148258 C100.824455,25.9542762 100.981886,18.6074887 96.5475753,13.9632694 Z" id="Path" fill="#EA6957"></path>
                <path d="M156.030316,52.3239958 L129.42445,52.3239958 C126.38078,52.3239958 123.940597,54.7904174 123.940597,57.8078479 L123.940597,68.8280293 C123.940597,71.8716984 126.407019,74.3118814 129.42445,74.3118814 L131.392339,74.3118814 L131.392339,83.4953658 L138.712888,74.3118814 L156.030316,74.3118814 C159.073985,74.3118814 161.514168,71.8454599 161.514168,68.8280293 L161.514168,57.8078479 C161.514168,54.7904174 159.047746,52.3239958 156.030316,52.3239958 Z" id="Path" fill="#00ACD4"></path>
                <path d="M4.05676781,19.3159289 L23.2896081,19.3159289 C25.4936443,19.3159289 27.2516256,21.1001488 27.2516256,23.2779465 L27.2516256,31.2282202 C27.2516256,33.4322564 25.4674058,35.1902377 23.2896081,35.1902377 L21.8727276,35.1902377 L21.8727276,41.828585 L16.5725452,35.1902377 L4.05676781,35.1902377 C1.85273154,35.1902377 0.0947502362,33.4060179 0.0947502362,31.2282202 L0.0947502362,23.2779465 C0.0947502362,21.1001488 1.87897007,19.3159289 4.05676781,19.3159289 Z" id="Path" fill="#00ACD4"></path>
            </g>
        </g>
    </g>
</svg>